<svg id="Layer_1" data-name="Layer 1" xmlns="http://www.w3.org/2000/svg" viewBox="0 0 150 150"><g class="nc-icon-wrapper" fill="#111111"><defs/><title>book</title><path class="cls-1" d="M85.2 71.16a2.48 2.48 0 0 0 3.34 1.09c.15-.08 14.77-7.5 22-9.78a2.49 2.49 0 0 0-1.5-4.74c-7.6 2.4-22.12 9.78-22.73 10.09a2.49 2.49 0 0 0-1.11 3.34z" style="" fill="#111111"/><path class="cls-1" d="M87.42 42.72a2.5 2.5 0 0 0 1.12-.27c.15-.08 14.77-7.5 22-9.78a2.49 2.49 0 0 0-1.5-4.74c-7.6 2.4-22.12 9.78-22.73 10.09a2.48 2.48 0 0 0 1.13 4.7z" style="" fill="#111111"/><path class="cls-1" d="M147 37.75a2.48 2.48 0 0 0-2.49 2.48v96.85a7.46 7.46 0 0 1-7.45 7.45H77.48v-5.71c3.62-1.27 13.06-4.22 22.35-4.22 21.64 0 36.32 4.79 36.47 4.84a2.48 2.48 0 0 0 3.27-2.36V27.82a2.48 2.48 0 0 0-1.95-2.43s-2-.43-5.27-1a2.48 2.48 0 0 0-.9 4.88c1.27.24 2.33.44 3.15.61v103.9a140.5 140.5 0 0 0-34.77-4.15c-10.82 0-21.45 3.56-24.73 4.76a58.24 58.24 0 0 0-22.45-4.76 166.74 166.74 0 0 0-37.25 4.26V29.74a163.38 163.38 0 0 1 37.25-4.41 53.74 53.74 0 0 1 19.87 4.1v97.72a2.48 2.48 0 0 0 3.76 2.13c.24-.15 24.85-14.84 46.69-22.12a2.5 2.5 0 0 0 1.7-2.36V3a2.48 2.48 0 0 0-3.36-2.34c-19.87 7.45-40 20-40.18 20.09A2.48 2.48 0 1 0 83.77 25 264.24 264.24 0 0 1 119.7 6.62V103c-17 5.89-34.65 15.51-42.22 19.82v-95a2.48 2.48 0 0 0-1.37-2.22 57.31 57.31 0 0 0-23.46-5.23 161.27 161.27 0 0 0-40.42 5.06 2.49 2.49 0 0 0-1.8 2.39v109.26a2.49 2.49 0 0 0 2.49 2.49 2.66 2.66 0 0 0 .68-.1 159.29 159.29 0 0 1 39.05-4.87 54 54 0 0 1 19.87 4.09v5.84h-59.6a7.46 7.46 0 0 1-7.45-7.45V40.23a2.49 2.49 0 0 0-5 0v96.85a12.43 12.43 0 0 0 12.45 12.42h124.16a12.43 12.43 0 0 0 12.42-12.42V40.23a2.48 2.48 0 0 0-2.5-2.48z" style="" fill="#111111"/><path class="cls-1" d="M85.2 56.26a2.48 2.48 0 0 0 3.34 1.09c.15-.08 14.77-7.5 22-9.78a2.49 2.49 0 0 0-1.5-4.74c-7.6 2.4-22.12 9.78-22.73 10.09a2.49 2.49 0 0 0-1.11 3.34z" style="" fill="#111111"/><path class="cls-1" d="M85.2 86.06a2.48 2.48 0 0 0 3.34 1.09c.15-.08 14.77-7.5 22-9.78a2.49 2.49 0 0 0-1.5-4.74c-7.6 2.4-22.12 9.78-22.73 10.09a2.49 2.49 0 0 0-1.11 3.34z" style="" fill="#111111"/><path class="cls-1" d="M60.67 46.59c-15.34-3.6-32.76 1-33.5 1.18a2.48 2.48 0 0 0 .64 4.88 2.89 2.89 0 0 0 .65-.08c.17 0 16.94-4.46 31.07-1.15a2.48 2.48 0 1 0 1.14-4.83z" style="" fill="#111111"/><path class="cls-1" d="M60.67 61.49c-15.34-3.6-32.76 1-33.5 1.18a2.48 2.48 0 0 0 .64 4.88 2.89 2.89 0 0 0 .65-.08c.17 0 16.94-4.46 31.07-1.15a2.48 2.48 0 1 0 1.14-4.83z" style="" fill="#111111"/><path class="cls-1" d="M85.2 101a2.48 2.48 0 0 0 3.34 1.09c.15-.08 14.77-7.5 22-9.78a2.49 2.49 0 0 0-1.5-4.74c-7.6 2.4-22.12 9.78-22.73 10.09A2.49 2.49 0 0 0 85.2 101z" style="" fill="#111111"/><path class="cls-1" d="M60.67 76.39c-15.34-3.6-32.76 1-33.5 1.18a2.48 2.48 0 0 0 .64 4.88 2.89 2.89 0 0 0 .65-.08c.17-.05 16.94-4.46 31.07-1.15a2.48 2.48 0 1 0 1.14-4.83z" style="" fill="#111111"/><path class="cls-1" d="M60.67 106.19c-15.34-3.6-32.76 1-33.5 1.18a2.48 2.48 0 0 0 .64 4.88 2.89 2.89 0 0 0 .65-.08c.17 0 16.94-4.46 31.07-1.15a2.48 2.48 0 1 0 1.14-4.83z" style="" fill="#111111"/><path class="cls-1" d="M60.67 91.29c-15.34-3.6-32.76 1-33.5 1.18a2.48 2.48 0 0 0 .64 4.88 2.89 2.89 0 0 0 .65-.08c.17 0 16.94-4.46 31.07-1.15a2.48 2.48 0 1 0 1.14-4.83z" style="" fill="#111111"/></g></svg>