<svg id="Layer_1" data-name="Layer 1" xmlns="http://www.w3.org/2000/svg" viewBox="0 0 150 150"><g class="nc-icon-wrapper" fill="#111111"><defs/><title>diversity</title><path class="cls-1" d="M142.33 64.77a12.42 12.42 0 1 0-15.46 0 15 15 0 0 0-4 3.52l-12.15 12.17a7.39 7.39 0 0 0-10.34-1.52 7.23 7.23 0 0 0-1.85 2L83.89 70.49c-.37-.28-.75-.53-1.15-.78a12.45 12.45 0 1 0-15.46 0c-.4.25-.78.5-1.15.78L51.47 81a7.39 7.39 0 0 0-10.19-2.34 7.51 7.51 0 0 0-2 1.85L27.11 68.29a15 15 0 0 0-4-3.52 12.42 12.42 0 1 0-15.46 0A14.87 14.87 0 0 0 .5 77.48v22.35a2.48 2.48 0 0 0 2.5 2.48h24.82a2.48 2.48 0 0 0 2.48-2.48V78.51l7.57 7.56a7.42 7.42 0 0 0 14.64.24l7.68-5.49a14.7 14.7 0 0 0-.09 1.63v22.35a2.48 2.48 0 0 0 2.48 2.48h24.84a2.48 2.48 0 0 0 2.48-2.48V82.45a14.7 14.7 0 0 0-.09-1.63l7.68 5.49a7.42 7.42 0 0 0 14.64-.24l7.57-7.56v21.32a2.48 2.48 0 0 0 2.48 2.48H147a2.48 2.48 0 0 0 2.48-2.48V77.48a14.87 14.87 0 0 0-7.15-12.71zM15.4 47.68A7.45 7.45 0 1 1 8 55.13a7.45 7.45 0 0 1 7.4-7.45zm9.93 49.67H5.47V77.48a9.93 9.93 0 1 1 19.86 0zm19.87-9.94a2.48 2.48 0 1 1 2.48-2.48 2.48 2.48 0 0 1-2.48 2.48zM75 52.65a7.45 7.45 0 1 1-7.45 7.45A7.45 7.45 0 0 1 75 52.65zm9.93 49.66H65.07V82.45a9.93 9.93 0 1 1 19.86 0zm19.87-14.9a2.48 2.48 0 1 1 2.48-2.48 2.48 2.48 0 0 1-2.48 2.48zm29.8-39.73a7.45 7.45 0 1 1-7.45 7.45 7.46 7.46 0 0 1 7.45-7.45zm9.93 49.67h-19.86V77.48a9.93 9.93 0 0 1 19.86 0z" style="" fill="#111111"/><path class="cls-1" d="M85.84 20.06a7.45 7.45 0 0 0-10.54 0A7.45 7.45 0 0 0 64.77 30.6l8.77 8.78a2.49 2.49 0 0 0 3.52 0l8.78-8.78a7.45 7.45 0 0 0 0-10.54zm-3.51 7l-7 7-7-7a2.48 2.48 0 0 1 3.51-3.51l1.75 1.75a2.49 2.49 0 0 0 3.52 0l1.75-1.75a2.49 2.49 0 0 1 3.52 3.51z" style="" fill="#111111"/><path class="cls-1" d="M147.39 2.72a7.35 7.35 0 0 0-10.31-.08 7.34 7.34 0 0 0-10.31.08 7.66 7.66 0 0 0 0 10.52l8.53 8.85a2.48 2.48 0 0 0 3.5.06l.07-.06 8.52-8.85a7.64 7.64 0 0 0 0-10.52zm-3.57 7.08l-6.74 7-6.73-7a2.65 2.65 0 0 1 0-3.63 2.21 2.21 0 0 1 3.13-.11 1.14 1.14 0 0 1 .11.11l1.71 1.77a2.55 2.55 0 0 0 3.57 0l1.7-1.77a2.27 2.27 0 0 1 3.21 0 2.64 2.64 0 0 1 .04 3.63z" style="" fill="#111111"/><path class="cls-1" d="M23.23 2.72a7.35 7.35 0 0 0-10.31-.08 7.34 7.34 0 0 0-10.31.08 7.64 7.64 0 0 0 0 10.52l8.52 8.85a2.49 2.49 0 0 0 3.51.06l.06-.06 8.53-8.85a7.66 7.66 0 0 0 0-10.52zM19.65 9.8l-6.73 7-6.74-7a2.57 2.57 0 0 1 0-3.63 2.23 2.23 0 0 1 3.14-.11 1.14 1.14 0 0 0 .11.11l1.7 1.77a2.55 2.55 0 0 0 3.57 0l1.71-1.77a2.26 2.26 0 0 1 3.2 0 2.64 2.64 0 0 1 .04 3.63z" style="" fill="#111111"/><path class="cls-1" d="M36.44 11.25a74.51 74.51 0 0 0-25.21 25.21L15.48 39a69.56 69.56 0 0 1 119 0l4.25-2.57A74.52 74.52 0 0 0 36.44 11.25z" style="" fill="#111111"/><path class="cls-1" d="M137.17 106.17a69.56 69.56 0 0 1-124.34 0l-4.44 2.22a74.52 74.52 0 0 0 133.22 0z" style="" fill="#111111"/></g></svg>