<svg id="Layer_1" data-name="Layer 1" xmlns="http://www.w3.org/2000/svg" viewBox="0 0 150 150"><g class="nc-icon-wrapper" fill="#111111"><defs/><title>faq</title><path class="cls-1" d="M101.19 93.33a2.91 2.91 0 0 0-2.91 2.91v20.08a14.57 14.57 0 0 1-14.55 14.56H52.31a2.9 2.9 0 0 0-2.91 2.9v5.79l-6.95-6.95a2.91 2.91 0 0 0-2.67-1.74H20.87a14.57 14.57 0 0 1-14.55-14.56V71.51A14.56 14.56 0 0 1 20.87 57h29.39a2.91 2.91 0 1 0 0-5.82H20.87A20.4 20.4 0 0 0 .5 71.51v44.81a20.4 20.4 0 0 0 20.37 20.38h17.42l12 12a2.94 2.94 0 0 0 2.06.85 2.85 2.85 0 0 0 1.11-.22 2.91 2.91 0 0 0 1.8-2.69v-9.94h28.47a20.4 20.4 0 0 0 20.37-20.38V96.24a2.91 2.91 0 0 0-2.91-2.91z" style="" fill="#111111"/><path class="cls-1" d="M107.2.5h-7.36a42.3 42.3 0 0 0 0 84.6h7.36a42.58 42.58 0 0 0 10.74-1.38l10.88 10.87a2.91 2.91 0 0 0 5-2V75.7A42.63 42.63 0 0 0 144.9 62a41.86 41.86 0 0 0 4.6-19.19A42.34 42.34 0 0 0 107.2.5zM129.12 72a2.93 2.93 0 0 0-1.12 2.28v11.23l-7.12-7.12a2.9 2.9 0 0 0-2-.85 3.14 3.14 0 0 0-.86.13 36.28 36.28 0 0 1-10.73 1.61h-7.45a36.48 36.48 0 0 1 0-73h7.36A36.47 36.47 0 0 1 129.12 72z" style="" fill="#111111"/><path class="cls-1" d="M116.62 32.34a12.32 12.32 0 0 0-24.62.87 2.91 2.91 0 0 0 5.82 0 6.5 6.5 0 1 1 7.93 6.34 5.53 5.53 0 0 0-4.34 5.4v7a2.91 2.91 0 1 0 5.82 0v-6.77a12.24 12.24 0 0 0 9.39-12.84z" style="" fill="#111111"/><path class="cls-1" d="M106.39 61.4a2.92 2.92 0 0 0-5 2.06 3 3 0 0 0 .86 2.06 2.91 2.91 0 0 0 4.11 0 3 3 0 0 0 .85-2.06 2.93 2.93 0 0 0-.82-2.06z" style="" fill="#111111"/><path class="cls-1" d="M80.53 90.71H19.12a2.92 2.92 0 0 0 0 5.83h61.41a2.92 2.92 0 0 0 0-5.83z" style="" fill="#111111"/><path class="cls-1" d="M82.59 107.86a2.92 2.92 0 1 0 .85 2.06 2.95 2.95 0 0 0-.85-2.06z" style="" fill="#111111"/><path class="cls-1" d="M69.08 107h-50a2.91 2.91 0 0 0 0 5.82h50a2.91 2.91 0 0 0 0-5.82z" style="" fill="#111111"/><path class="cls-1" d="M61.61 74.42H19.12a2.91 2.91 0 0 0 0 5.82h42.49a2.91 2.91 0 0 0 0-5.82z" style="" fill="#111111"/></g></svg>