<svg id="Layer_1" data-name="Layer 1" xmlns="http://www.w3.org/2000/svg" viewBox="0 0 150 150"><g class="nc-icon-wrapper" fill="#111111"><defs/><title>hands</title><path class="cls-1" d="M115.87 144.26l-15.63-15.63a3 3 0 0 0-2.06-.85h-8.44a39.06 39.06 0 0 1-13.61-2.47l5-3.38a9.15 9.15 0 0 0-5.11-16.75h-.14L87.5 93.6a9 9 0 0 0-2.94-14.72 9 9 0 0 0-7.79-13.58 8.92 8.92 0 0 0-4.56 1.24 9 9 0 0 0-14.72-2.94l-4.16 4.16a9 9 0 0 0-14.6-2.66L36.89 67l-7.5-7.46a5.59 5.59 0 0 1 7.47-8.29l7.27 7.27a2.91 2.91 0 0 0 4.11-4.12L35.71 41.82a5.59 5.59 0 0 1 7.9-7.9l22 22a2.91 2.91 0 0 0 4.11-4.11L53 35.07a5.58 5.58 0 0 1 8.28-7.47l6.12 6.11a2.91 2.91 0 1 0 4.11-4.11l-6.11-6.12a11.4 11.4 0 0 0-19.08 5.12A11.41 11.41 0 0 0 30.4 44.53a11.25 11.25 0 0 0-5.13 2.94 11.43 11.43 0 0 0-.7 15.36 11.4 11.4 0 0 0-5 19l1.29 1.3a32.61 32.61 0 0 0-7.56 21V109L1.35 121a2.91 2.91 0 1 0 4.12 4.11l12.79-12.79a2.92 2.92 0 0 0 .86-2.06v-6A26.84 26.84 0 0 1 27 85.05l14.46-14.44 1.39-1.39a3.2 3.2 0 0 1 4.76 4.26l-3.85 3.84a2.93 2.93 0 0 0 0 4.12 2.9 2.9 0 0 0 4.12 0l13.73-13.73a3.21 3.21 0 0 1 4.52 0 3.21 3.21 0 0 1 .24 4.29l-14 14a2.91 2.91 0 0 0 2.06 5 2.89 2.89 0 0 0 2.06-.85l18-18a3.19 3.19 0 0 1 4.52 0 3.19 3.19 0 0 1 0 4.52l-18 18a2.91 2.91 0 1 0 4.12 4.12l14-14a3.2 3.2 0 0 1 4.25 4.77l-19.65 19.57a3.81 3.81 0 0 0 4.67 6l5.94-3.6a3.33 3.33 0 0 1 5 3.46 3.28 3.28 0 0 1-1.42 2.16l-13.73 9.21a27 27 0 0 1-15 4.58h-9.33a2.92 2.92 0 0 0-2.06.86L25 144.59a2.91 2.91 0 0 0 4 4.06l12-11.94h8.17a32.76 32.76 0 0 0 18.29-5.57l2.94-2a44.81 44.81 0 0 0 19.37 4.43H97l14.77 14.78a2.91 2.91 0 0 0 4.12-4.12zM30.87 73l-6 6-1.2-1.2a5.59 5.59 0 0 1 7.47-8.29l1.61 1.61z" style="" fill="#111111"/><path class="cls-1" d="M148.65 111.49a2.92 2.92 0 0 0-4.12 0 2.91 2.91 0 1 0 4.12 0z" style="" fill="#111111"/><path class="cls-1" d="M140.82 103.66l-6.95-7V84.89a44.4 44.4 0 0 0-7.55-24.87L113.53 41a11.59 11.59 0 0 0-16.28-3 11.63 11.63 0 0 0-4.4 13l-7.61-7.61a2.91 2.91 0 0 0-4.11 4.12l16.33 16.27a4.17 4.17 0 0 0 6.51-5.1l-5-8.26a5.78 5.78 0 0 1 9.74-6.21l12.8 19.1a38.58 38.58 0 0 1 6.57 21.63v13a2.89 2.89 0 0 0 .85 2.06l7.81 7.81a2.91 2.91 0 0 0 4.11 0 2.91 2.91 0 0 0-.03-4.15z" style="" fill="#111111"/><path class="cls-1" d="M78.4 36.48a2.93 2.93 0 0 0-2.06-.85 3 3 0 0 0-2.06.85 2.92 2.92 0 0 0 0 4.12 3 3 0 0 0 2.06.85 2.91 2.91 0 0 0 2.06-5z" style="" fill="#111111"/><path class="cls-1" d="M105.41 81.64a2.91 2.91 0 0 0-4.12-4.11L100 78.8a14 14 0 0 0 0 19.71 2.92 2.92 0 0 0 4.12 0 2.93 2.93 0 0 0 0-4.12 8.12 8.12 0 0 1 0-11.48z" style="" fill="#111111"/><path class="cls-1" d="M139.4 16.22a10 10 0 0 0-5.22 1.48 10 10 0 0 0-5.18-1.48 10.2 10.2 0 0 0-10.1 10.28c0 3.21 2.31 7.07 7.06 11.8a74.09 74.09 0 0 0 6.49 5.7 2.91 2.91 0 0 0 3.55 0 74.09 74.09 0 0 0 6.49-5.7c4.75-4.73 7.06-8.59 7.06-11.8a10.2 10.2 0 0 0-10.15-10.28zM134.18 38c-4.86-4-9.5-9.2-9.5-11.47A4.38 4.38 0 0 1 129 22a4.13 4.13 0 0 1 3 1.41 2.93 2.93 0 0 0 4.28 0A4.13 4.13 0 0 1 139.4 22a4.38 4.38 0 0 1 4.28 4.46c0 2.31-4.68 7.46-9.5 11.54z" style="" fill="#111111"/><path class="cls-1" d="M21 .5A10 10 0 0 0 15.82 2 10 10 0 0 0 10.6.5 10.2 10.2 0 0 0 .5 10.78c0 3.22 2.31 7.08 7.06 11.8a75.21 75.21 0 0 0 6.49 5.71 2.91 2.91 0 0 0 3.54 0 75.21 75.21 0 0 0 6.49-5.71c4.75-4.72 7.06-8.58 7.06-11.8A10.2 10.2 0 0 0 21 .5zm-5.18 21.75c-4.86-4-9.5-9.19-9.5-11.47a4.38 4.38 0 0 1 4.28-4.46 4.16 4.16 0 0 1 3.08 1.37 2.91 2.91 0 0 0 4.28 0A4.16 4.16 0 0 1 21 6.32a4.38 4.38 0 0 1 4.28 4.46c.04 2.27-4.6 7.43-9.46 11.47z" style="" fill="#111111"/></g></svg>