<svg id="Layer_1" data-name="Layer 1" xmlns="http://www.w3.org/2000/svg" viewBox="0 0 150 150"><g class="nc-icon-wrapper" fill="#111111"><defs/><title>listen</title><path class="cls-1" d="M19 82.76c7.6 0 13.79 8 13.79 17.82S26.63 118.39 19 118.39s-13.8-8-13.8-17.81S11.42 82.76 19 82.76M19 78C8.81 78 .5 88.14.5 100.58s8.31 22.54 18.5 22.54S37.55 113 37.55 100.58 29.24 78 19 78z" style="" fill="#111111"/><path class="cls-1" d="M77.43 51.27h.37l.27-.25 14.87-13.53 1.78-1.62-2.41-.03-11.03-.1 11.93-7.67 1.75-1.12-2-.58-26.79-7.77-.8-.23-.33.77-3.35 7.76-1.26 2.94 2.66-1.77 4.87-3.25 15.01 3.78-15.83 10.07-2.74 1.74H82.84l-8.9 9.25-1.55 1.61h5.04z" style="" fill="#111111"/><path class="cls-1" d="M62 75.28a15.88 15.88 0 0 0-14.8 21.66A60 60 0 0 1 62 95.23a60.14 60.14 0 0 1 14.84 1.71A15.9 15.9 0 0 0 62 75.28zm11.22 16.07a74.08 74.08 0 0 0-22.38 0v-.15a11.11 11.11 0 0 1 .87-4.32 4.91 4.91 0 1 0 6.55-6.2A11 11 0 0 1 62 80a11.2 11.2 0 0 1 11.22 11.2z" style="" fill="#111111"/><path class="cls-1" d="M103.6 71a15.89 15.89 0 0 0-14.83 21.64 60 60 0 0 1 14.83-1.72 60.1 60.1 0 0 1 14.84 1.72A15.91 15.91 0 0 0 103.6 71zm11.19 16.08a73.23 73.23 0 0 0-22.38 0v-.16a11.1 11.1 0 0 1 .87-4.31 4.92 4.92 0 1 0 6.55-6.21 11.18 11.18 0 0 1 15 10.52z" style="" fill="#111111"/><path class="cls-1" d="M45.88 79.42a2.32 2.32 0 0 1-1.11-.28 2.37 2.37 0 0 1-1-3.2c8.11-15.26 19.49-10.34 19.61-10.29A2.37 2.37 0 0 1 61.45 70c-.34-.15-7.55-3-13.48 8.19a2.38 2.38 0 0 1-2.09 1.23z" style="" fill="#111111"/><path class="cls-1" d="M116.49 72.64a2.36 2.36 0 0 1-2.12-1.31c-.4-.78-4.08-7.35-13.17-2.77a2.36 2.36 0 1 1-2.13-4.22c4.39-2.21 8.46-2.71 12.12-1.49a13.67 13.67 0 0 1 7.42 6.39 2.36 2.36 0 0 1-1.08 3.16 2.29 2.29 0 0 1-1.04.24z" style="" fill="#111111"/><path class="cls-1" d="M82.87 108.46a15.43 15.43 0 0 1-3.57-.46 2.36 2.36 0 0 1 1.16-4.58c1 .25 3.54.54 4.74-.18a1.27 1.27 0 0 0 .59-.85.94.94 0 0 0 0-.35c-.31-.33-2.22-.64-4-.45a2.4 2.4 0 0 1-2.27-1.1 2.36 2.36 0 0 1 0-2.52l2-3.13a2.37 2.37 0 0 1 4.17 2.22A6.7 6.7 0 0 1 89.4 99a4.93 4.93 0 0 1 1 4.53 5.93 5.93 0 0 1-2.75 3.79 9.29 9.29 0 0 1-4.78 1.14z" style="" fill="#111111"/><path class="cls-1" d="M95.84 109.67a2.38 2.38 0 0 0-3.19-1c-.1 0-10.11 5.08-21.48 2.25a2.36 2.36 0 0 0-1.17 4.56l.73.16.27.36c2.93 5.84 3.86 6.86 10 6.86h.72c5.5-.07 8.49-2.87 8.92-8.33a31.28 31.28 0 0 0 4.26-1.69 2.37 2.37 0 0 0 .94-3.17zm-14.26 8.47c-2 0-3.54 0-4.07-.35a4.3 4.3 0 0 1-1-1.35h1.9a38.72 38.72 0 0 0 7.23-.7c-.44 1.63-1.53 2.37-4.06 2.4z" style="" fill="#111111"/><path class="cls-1" d="M147.08 73.05c-2.13-4.49-5.36-7.13-9.1-7.43a10.25 10.25 0 0 0-7.85 3.18 38.56 38.56 0 0 0-22-20.81 64 64 0 0 0-16.7-4l-4.94 4.5a57.32 57.32 0 0 1 20 4c12.36 4.58 18.1 14.36 20.74 21.76a2.37 2.37 0 0 0 4.23.47c1.84-2.91 4.09-4.48 6.16-4.32s3.84 1.88 5.19 4.73a24.85 24.85 0 0 1 1.88 12.29c-.61 7.74-4.72 16.07-9.64 15.71-2.24-.18-3.82-2.3-4.56-3.55a2.41 2.41 0 0 0-2.13-1.16 2.38 2.38 0 0 0-2 1.33c-8 16.43-26.39 22.66-26.57 22.72-9.4 3.11-10.81 3.47-22.28 4.24-8.71.58-13.69.61-31.63-4.89a18.94 18.94 0 0 1-8.05-5c-.48.76-1 1.51-1.53 2.22-.43.55-.88 1.08-1.35 1.58a23.27 23.27 0 0 0 9.54 5.74c14 4.3 20.69 5.35 27 5.35 2.08 0 4.12-.11 6.38-.26 12.1-.81 14-1.35 23.45-4.47 6.49-2.15 19.92-9.35 27.56-21.91a9.45 9.45 0 0 0 5.87 2.79c7.32.57 13.79-8.23 14.72-20a29.62 29.62 0 0 0-2.39-14.81z" style="" fill="#111111"/><path class="cls-1" d="M65.06 50.92c1-.22 2-.42 3-.6L71.21 47l2.33-2.42c-3 .41-6.1 1-9.53 1.68-8.18 2-29.6 11-37.77 28.33a22 22 0 0 1 4.23 2.17c6.9-14.64 25.25-23.56 34.59-25.84z" style="" fill="#111111"/><path class="cls-1" d="M29.18 100.58C27 90.09 21.33 86.35 16.73 86.35c-5.37 0-8.13 6.61-8.43 7.36a2.37 2.37 0 0 0 4.41 1.74c.6-1.53 2.39-4.37 4-4.37s3.57 1 5.23 3.6c-1.31 1.33-2.81 3.9-2 8.44.67 2.32 2.85 3.37 4.59 4.09a6.73 6.73 0 0 1-1 2.17 4.72 4.72 0 0 1-3 2 8.78 8.78 0 0 1-4.2-.68 2.37 2.37 0 0 0-2 4.28 13.88 13.88 0 0 0 5.45 1.18 12.73 12.73 0 0 0 1.37-.08 9.43 9.43 0 0 0 6.27-3.94c1.45-2.05 2.95-5.72 1.76-11.56z" style="" fill="#111111"/></g></svg>