<svg id="Layer_1" data-name="Layer 1" xmlns="http://www.w3.org/2000/svg" viewBox="0 0 150 150"><g class="nc-icon-wrapper" fill="#111111"><defs/><title>love</title><path class="cls-1" d="M127.2 99.73l-51.32 8.93L61.3 94.08a2.56 2.56 0 0 0-1.83-.76H33.59A2.58 2.58 0 0 0 31 90.73H2.54v5.18h15.53v36.23H2.54v5.17H31a2.57 2.57 0 0 0 2.58-2.58h7.16l27.66 13.83a8.42 8.42 0 0 0 8-.26l56.45-32.93a8.46 8.46 0 0 0-5.71-15.64zm-98.78 32.41h-5.18V95.91h5.18zM130.3 110.9l-56.45 32.93a3.26 3.26 0 0 1-3.12.1l-28.21-14.11a2.6 2.6 0 0 0-1.16-.27h-7.77V98.5H58.4l20.39 20.38a4.73 4.73 0 0 1-6.69 6.7l-13.39-13.39-3.65 3.66 13.38 13.39a9.91 9.91 0 0 0 14-14l-2.1-2.1 47.73-8.3a3.22 3.22 0 0 1 2.68.72 3.26 3.26 0 0 1 1.17 2.51 3.3 3.3 0 0 1-1.62 2.83z" style="" fill="#111111"/><path class="cls-1" d="M147.46 18.27V13.1h-16.25c-.48-.49-1.13 0-1.87 0H119c-1.43 0-2.58 0-2.58 2.58h-7.16L81.58 1.45a8.43 8.43 0 0 0-8 .06L17.09 34.34A8.41 8.41 0 0 0 21.34 50a9 9 0 0 0 1.46-.13L74.12 41l14.57 15c.49.49 1.15 1.16 1.84 1.16h25.88s1.15 2.59 2.58 2.59h28.47V54.5h-15.53V18.27zM91.6 51.91L71.21 31.13a5.23 5.23 0 0 1-1.39-3.55 4.83 4.83 0 0 1 4.73-4.83 4.66 4.66 0 0 1 3.35 1.33l13.39 13.36 3.65-3.67-13.38-13.39a9.91 9.91 0 0 0-14 14l2.09 2.09-47.73 8.3a3.28 3.28 0 0 1-2.21-6.07L76.15 5.78a3.26 3.26 0 0 1 3.12-.1l28.21 14.51c.36.18.76.67 1.16.67h7.77v31.05zm30-33.64h5.18V54.5h-5.18z" style="" fill="#111111"/><path class="cls-1" d="M75 62.39a11.19 11.19 0 0 0-14.9.3 10.18 10.18 0 0 0 0 14.84L73.21 90a2.64 2.64 0 0 0 1.79.71 2.6 2.6 0 0 0 1.78-.71L89.9 77.54a10.19 10.19 0 0 0 0-14.85 11.18 11.18 0 0 0-14.9-.3zm11.33 11.39L75 84.57 63.67 73.78a5 5 0 0 1 0-7.34 5.93 5.93 0 0 1 8.08 0l1.46 1.38a2.59 2.59 0 0 0 3.57 0l1.46-1.38a5.94 5.94 0 0 1 8.08 0 5 5 0 0 1 0 7.35z" style="" fill="#111111"/><path class="cls-1" d="M45 54.93L40.68 52a41.44 41.44 0 0 0-2.78 4.8l4.64 2.3A34.28 34.28 0 0 1 45 54.93z" style="" fill="#111111"/><path class="cls-1" d="M34.46 83.68A40.85 40.85 0 0 0 36 89l4.87-1.72a36.29 36.29 0 0 1-1.29-4.65z" style="" fill="#111111"/><path class="cls-1" d="M34.36 67.23l5.08 1a36.73 36.73 0 0 1 1.24-4.66l-4.9-1.67a42.4 42.4 0 0 0-1.42 5.33z" style="" fill="#111111"/><path class="cls-1" d="M33.59 75.21c0 1 0 2 .11 3l5.16-.37q-.09-1.31-.09-2.64 0-1.1.06-2.19l-5.16-.32c-.05.84-.08 1.67-.08 2.52z" style="" fill="#111111"/><path class="cls-1" d="M109.17 63.13a36.52 36.52 0 0 1 1.3 4.65l5.07-1a43.35 43.35 0 0 0-1.49-5.32z" style="" fill="#111111"/><path class="cls-1" d="M105 95.47l4.29 2.9a39.81 39.81 0 0 0 2.78-4.77l-4.64-2.3a33.54 33.54 0 0 1-2.43 4.17z" style="" fill="#111111"/><path class="cls-1" d="M109.32 86.85l4.9 1.66a40.63 40.63 0 0 0 1.42-5.33l-5.08-1a36.88 36.88 0 0 1-1.24 4.67z" style="" fill="#111111"/><path class="cls-1" d="M116.41 75.21c0-1 0-2-.11-3l-5.16.38q.09 1.31.09 2.64c0 .74 0 1.46-.06 2.19l5.16.32c.05-.86.08-1.74.08-2.53z" style="" fill="#111111"/></g></svg>