<svg id="Layer_1" data-name="Layer 1" xmlns="http://www.w3.org/2000/svg" viewBox="0 0 150 150"><g class="nc-icon-wrapper" fill="#111111"><defs/><title>presentation</title><path class="cls-1" d="M70.68 88.81h61.66a2.91 2.91 0 0 0 0-5.82H70.68a2.91 2.91 0 0 0 0 5.82" style="" fill="#111111"/><path class="cls-1" d="M70.68 76.47h61.66a2.91 2.91 0 1 0 0-5.82H70.68a2.91 2.91 0 0 0 0 5.82" style="" fill="#111111"/><path class="cls-1" d="M100.33 63.44h32a2.91 2.91 0 0 0 0-5.82h-32a2.91 2.91 0 1 0 0 5.82" style="" fill="#111111"/><path class="cls-1" d="M56.42 70.31a2.91 2.91 0 1 1-2.91 2.91 2.91 2.91 0 0 1 2.91-2.91" style="" fill="#111111"/><path class="cls-1" d="M143.68 101.38a2.86 2.86 0 0 1-2.85 2.85H62.18a2.85 2.85 0 0 1-2.84-2.85v-17a2.92 2.92 0 0 0-5.83 0v17a8.68 8.68 0 0 0 8.67 8.67h29.13L83 134.9H41.75V64.68h29.67a15.15 15.15 0 0 0 15.13-15.13 2.92 2.92 0 0 0-2.91-2.91h-24.3V32a2.85 2.85 0 0 1 2.84-2.85h78.65a2.86 2.86 0 0 1 2.85 2.85zm-27.84 33.52H89.12l8.33-24.85h10zM35.93 61.77v73.13h-6.05v-32.72a2.91 2.91 0 1 0-5.82 0v32.72H18V73a2.91 2.91 0 1 0-5.82 0v27.77a7.08 7.08 0 0 1-5.86-6.85v-21.7c0-10.89 9.18-19.75 20.46-19.75h53.48a9.32 9.32 0 0 1-8.84 6.39H38.84a2.91 2.91 0 0 0-2.91 2.91M26.07 30.7a8 8 0 1 1-8 8 8 8 0 0 1 8-8m75.44-15.6a11.14 11.14 0 0 1 10.74 8.22H90.77a11.14 11.14 0 0 1 10.74-8.22m39.32 8.22H118.2a16.94 16.94 0 0 0-33.38 0H62.18A8.68 8.68 0 0 0 53.51 32v14.64H37.32a13.79 13.79 0 1 0-20.75 2A25.63 25.63 0 0 0 .5 72.22v21.67a12.94 12.94 0 0 0 11.68 12.73v28.28H4.9a2.91 2.91 0 1 0 0 5.82h138.94a2.91 2.91 0 1 0 0-5.82H122l-8.34-24.85h27.19a8.68 8.68 0 0 0 8.67-8.67V32a8.68 8.68 0 0 0-8.67-8.67" style="" fill="#111111"/></g></svg>