<svg id="Layer_1" data-name="Layer 1" xmlns="http://www.w3.org/2000/svg" viewBox="0 0 50 38"><g class="nc-icon-wrapper" fill="#111111"><defs/><title>quote</title><path class="cls-1" d="M0 24.72C0 13.86 8.11 2.51 20.83 0l2.05 4.49c-4.61 1.76-8.67 7.9-9.12 12.13a11 11 0 0 1 9.15 10.87c0 6.68-5.38 10.51-10.83 10.51C5.8 38 0 33.1 0 24.72m27.08 0c0-10.86 8.11-22.21 20.83-24.72L50 4.45c-4.61 1.76-8.67 7.9-9.12 12.13A11 11 0 0 1 50 27.45C50 34.17 44.61 38 39.17 38c-6.28 0-12.09-4.86-12.09-13.24" style="" fill="#111111"/></g></svg>