<svg xmlns="http://www.w3.org/2000/svg" viewBox="0 0 179.13 50"><path class="cls-1" d="M100.21,237.93a3.35,3.35,0,0,0-2.95-1.48c-1.68,0-3.44.8-3.44,2.71,0,1.48.82,2.15,3.4,3s4.84,1.62,4.84,4.79-2.76,4.72-5.68,4.72a5.87,5.87,0,0,1-5-2.24l1.65-1.34a3.91,3.91,0,0,0,3.44,1.8c1.64,0,3.51-1,3.51-2.81s-1.34-2.32-4.22-3.28c-2.28-.75-4-1.76-4-4.45,0-3.1,2.67-4.65,5.49-4.65a5.53,5.53,0,0,1,4.52,1.89Z" transform="translate(-63.1 -234.67)"/><path class="cls-1" d="M112.48,237.54h0l-3.35,7.94h6.59Zm-.87-2.46h1.8l6.87,16.15H118l-1.64-4h-8.07l-1.67,4H104.5Z" transform="translate(-63.1 -234.67)"/><polygon class="cls-1" points="60.46 0.41 62.88 0.41 72.23 13.82 72.28 13.82 72.28 0.41 74.19 0.41 74.19 16.56 71.77 16.56 62.42 3.15 62.38 3.15 62.38 16.56 60.46 16.56 60.46 0.41"/><polygon class="cls-1" points="79.34 0.41 89.36 0.41 89.36 2.19 81.26 2.19 81.26 7.53 88.79 7.53 88.79 9.31 81.26 9.31 81.26 16.56 79.34 16.56 79.34 0.41"/><path class="cls-1" d="M170.16,243.15h0a6.39,6.39,0,1,0-6.39,6.71,6.38,6.38,0,0,0,6.39-6.71m-14.83,0a8.44,8.44,0,1,1,8.44,8.49A8.2,8.2,0,0,1,155.33,243.15Z" transform="translate(-63.1 -234.67)"/><path class="cls-1" d="M178.35,242.19h1.71c2.12,0,4.88,0,4.88-2.66,0-2.33-2-2.67-3.9-2.67h-2.69Zm-1.92-7.11h4.13c3.13,0,6.43.45,6.43,4.45,0,2.35-1.52,3.87-4,4.26l4.58,7.44h-2.35L180.81,244h-2.46v7.26h-1.92Z" transform="translate(-63.1 -234.67)"/><path class="cls-1" d="M193.13,249.45h3.65c3.69,0,6.5-1.87,6.5-6.3s-2.81-6.29-6.5-6.29h-3.65Zm-1.92-14.37h6.21a8.08,8.08,0,0,1,0,16.15h-6.21Z" transform="translate(-63.1 -234.67)"/><path class="cls-1" d="M100.21,237.93a3.35,3.35,0,0,0-2.95-1.48c-1.68,0-3.44.8-3.44,2.71,0,1.48.82,2.15,3.4,3s4.84,1.62,4.84,4.79-2.76,4.72-5.68,4.72a5.87,5.87,0,0,1-5-2.24l1.65-1.34a3.91,3.91,0,0,0,3.44,1.8c1.64,0,3.51-1,3.51-2.81s-1.34-2.32-4.22-3.28c-2.28-.75-4-1.76-4-4.45,0-3.1,2.67-4.65,5.49-4.65a5.53,5.53,0,0,1,4.52,1.89Z" transform="translate(-63.1 -234.67)"/><path class="cls-1" d="M112.48,237.54h0l-3.35,7.94h6.59Zm-.87-2.46h1.8l6.87,16.15H118l-1.64-4h-8.07l-1.67,4H104.5Z" transform="translate(-63.1 -234.67)"/><polygon class="cls-1" points="60.46 0.41 62.88 0.41 72.23 13.82 72.28 13.82 72.28 0.41 74.19 0.41 74.19 16.56 71.77 16.56 62.42 3.15 62.38 3.15 62.38 16.56 60.46 16.56 60.46 0.41"/><polygon class="cls-1" points="79.34 0.41 89.36 0.41 89.36 2.19 81.26 2.19 81.26 7.53 88.79 7.53 88.79 9.31 81.26 9.31 81.26 16.56 79.34 16.56 79.34 0.41"/><path class="cls-1" d="M170.16,243.15h0a6.39,6.39,0,1,0-6.39,6.71,6.38,6.38,0,0,0,6.39-6.71m-14.83,0a8.44,8.44,0,1,1,8.44,8.49A8.2,8.2,0,0,1,155.33,243.15Z" transform="translate(-63.1 -234.67)"/><path class="cls-1" d="M178.35,242.19h1.71c2.12,0,4.88,0,4.88-2.66,0-2.33-2-2.67-3.9-2.67h-2.69Zm-1.92-7.11h4.13c3.13,0,6.43.45,6.43,4.45,0,2.35-1.52,3.87-4,4.26l4.58,7.44h-2.35L180.81,244h-2.46v7.26h-1.92Z" transform="translate(-63.1 -234.67)"/><path class="cls-1" d="M193.13,249.45h3.65c3.69,0,6.5-1.87,6.5-6.3s-2.81-6.29-6.5-6.29h-3.65Zm-1.92-14.37h6.21a8.08,8.08,0,0,1,0,16.15h-6.21Z" transform="translate(-63.1 -234.67)"/><path class="cls-1" d="M221.73,284.22h4.74V274l8.47-15.66h-5l-5.68,10.87-5.59-10.87h-5.56L221.73,274Zm-30.95,0h4.53V264.85h.07l9,19.37h5.79v-25.9h-4.53v19.37h-.07l-9-19.37h-5.82Zm-22.32-13c0-4.56,1.93-9.24,6.64-9.24s6.63,4.68,6.63,9.24-1.79,9.39-6.63,9.39S168.46,275.87,168.46,271.19Zm-5,0c0,7.95,4,13.48,11.59,13.48s11.58-5.64,11.58-13.48-4.17-13.32-11.58-13.32S163.51,263.25,163.51,271.19Zm-30.81,13h4.53v-21.3l.07-.08,6.37,21.38h4.54l6.36-21.38h.07v21.38h4.54v-25.9h-7.59L146,278h-.07l-5.62-19.63H132.7Zm-21.1,0h4.74V273.46h1.52c2,0,2.61.74,3.29,2.67l2.84,8.09h5.29l-3.8-10.13c-.47-1.15-1.22-2.56-2.5-2.67v-.08a5.76,5.76,0,0,0,4.87-6c0-7.2-6.06-7-11.14-7H111.6Zm4.74-21.82h1.56c2.37,0,5,.26,5,3.38s-2.68,3.6-5,3.6h-1.56ZM85.12,284.22H90l2.06-5.94h9.59l2,5.94H109l-9.28-25.9H94.33Zm15.24-10H93.45l3.42-10.69h.07Zm-37.26,10h4.75V272.86h9.48v11.36h4.74v-25.9H77.33v10.46H67.85V258.32H63.1Z" transform="translate(-63.1 -234.67)"/><polygon class="cls-2" points="173.63 24.17 172.65 24.17 172.65 23.65 175.25 23.65 175.25 24.17 174.26 24.17 174.26 27.09 173.63 27.09 173.63 24.17"/><path class="cls-2" d="M241.55,260.35c0-.44-.05-1,0-1.44h0c-.11.42-.25.88-.41,1.31l-.5,1.5h-.48l-.46-1.48c-.13-.43-.26-.9-.35-1.33h0c0,.45,0,1-.06,1.46l-.08,1.39h-.58l.23-3.45h.82l.45,1.39c.13.4.23.81.32,1.19h0c.09-.37.21-.79.34-1.2l.47-1.38H242l.2,3.45h-.61Z" transform="translate(-63.1 -234.67)"/></svg>
