<svg id="Layer_1" data-name="Layer 1" xmlns="http://www.w3.org/2000/svg" viewBox="0 0 150 150"><g class="nc-icon-wrapper" fill="#111111"><defs/><title>tools</title><path class="cls-1" d="M112.25 27.82a22.35 22.35 0 1 0 22.35 22.35 22.35 22.35 0 0 0-22.35-22.35zm0 39.73a17.39 17.39 0 1 1 17.38-17.38 17.38 17.38 0 0 1-17.38 17.38z" style="" fill="#111111"/><path class="cls-1" d="M69.09 36.86l-4-3.19v-1.78l4-3.18a2.47 2.47 0 0 0 .91-2.45 32.08 32.08 0 0 0-2.28-6.81 2.51 2.51 0 0 0-2-1.43l-4.91-.45L59.6 16l1.06-4.65A2.51 2.51 0 0 0 59.9 9 33.26 33.26 0 0 0 54 4.73a2.46 2.46 0 0 0-2.45 0l-4.15 2.4c-.66-.23-1.35-.44-2.06-.64L43.41 2A2.48 2.48 0 0 0 41.12.5h-6.74A2.48 2.48 0 0 0 32.09 2l-1.92 4.5c-.71.2-1.4.41-2.06.64L24 4.75a2.48 2.48 0 0 0-2.46 0A32.76 32.76 0 0 0 15.6 9a2.5 2.5 0 0 0-.76 2.41L15.91 16l-1.16 1.56-4.92.44a2.48 2.48 0 0 0-2 1.43 31.37 31.37 0 0 0-2.29 6.81 2.47 2.47 0 0 0 .89 2.45l4 3.18v1.78l-4 3.19a2.47 2.47 0 0 0-.89 2.45 31.56 31.56 0 0 0 2.29 6.81 2.47 2.47 0 0 0 2 1.42l4.92.45 1.15 1.57-1.06 4.65a2.48 2.48 0 0 0 .76 2.4 33.31 33.31 0 0 0 5.91 4.23 2.46 2.46 0 0 0 2.45 0l4.15-2.41c.67.24 1.36.45 2.08.65l1.91 4.33a2.49 2.49 0 0 0 2.28 1.48h6.74a2.49 2.49 0 0 0 2.28-1.48l1.91-4.33c.72-.2 1.41-.41 2.08-.65l4.15 2.41a2.46 2.46 0 0 0 2.45 0 33.26 33.26 0 0 0 5.91-4.22 2.51 2.51 0 0 0 .76-2.41l-1.06-4.63L60.75 48l4.92-.45a2.48 2.48 0 0 0 2-1.43A31.56 31.56 0 0 0 70 39.31a2.47 2.47 0 0 0-.91-2.45zm-5.34 5.87l-4.56.42a2.53 2.53 0 0 0-1.77 1l-2.49 3.38a2.45 2.45 0 0 0-.43 2l1 4.29a27.25 27.25 0 0 1-2.71 1.94l-3.92-2.27a2.47 2.47 0 0 0-2.2-.14A22.4 22.4 0 0 1 43 54.52a2.47 2.47 0 0 0-1.71 1.42l-1.75 4H36l-1.75-4a2.51 2.51 0 0 0-1.72-1.42 22.4 22.4 0 0 1-3.68-1.14 2.47 2.47 0 0 0-2.2.14l-3.92 2.27A27.25 27.25 0 0 1 20 53.85l1-4.29a2.48 2.48 0 0 0-.42-2l-2.5-3.38a2.51 2.51 0 0 0-1.77-1l-4.56-.42a26 26 0 0 1-1-3l3.72-2.94a2.49 2.49 0 0 0 .94-1.94v-4.19a2.48 2.48 0 0 0-.94-1.94l-3.73-2.95a28.05 28.05 0 0 1 1-3l4.56-.41a2.51 2.51 0 0 0 1.77-1L20.58 18a2.48 2.48 0 0 0 .42-2l-1-4.29a29.08 29.08 0 0 1 2.71-2l3.92 2.28a2.5 2.5 0 0 0 2.2.14 23.44 23.44 0 0 1 3.7-1.13 2.47 2.47 0 0 0 1.73-1.4L36 5.47h3.46l1.78 4.13A2.47 2.47 0 0 0 43 11a23.89 23.89 0 0 1 3.69 1.15 2.48 2.48 0 0 0 2.19-.14l3.92-2.27a27.25 27.25 0 0 1 2.71 1.94L54.5 16a2.48 2.48 0 0 0 .42 2l2.5 3.38a2.51 2.51 0 0 0 1.77 1l4.56.42a25.8 25.8 0 0 1 1 3L61 28.75a2.48 2.48 0 0 0-.94 1.94v4.19a2.49 2.49 0 0 0 .94 1.94l3.72 2.94a26 26 0 0 1-.97 2.97z" style="" fill="#111111"/><path class="cls-1" d="M37.75 15.4a17.39 17.39 0 1 0 17.38 17.38A17.38 17.38 0 0 0 37.75 15.4zm0 29.8a12.42 12.42 0 1 1 12.42-12.42A12.42 12.42 0 0 1 37.75 45.2z" style="" fill="#111111"/><path class="cls-1" d="M147.5 43.5l-3.86-.77c-.15-.62-.31-1.23-.5-1.85l2.76-2.47a2.48 2.48 0 0 0 .63-2.83 37.45 37.45 0 0 0-4.53-7.81 2.48 2.48 0 0 0-2.76-.86l-3.47 1.14c-.44-.47-.9-.93-1.37-1.37l1.14-3.47a2.48 2.48 0 0 0-.86-2.76 37.09 37.09 0 0 0-7.82-4.56 2.48 2.48 0 0 0-2.82.62l-2.47 2.76c-.62-.18-1.24-.35-1.85-.49l-.77-3.86a2.47 2.47 0 0 0-2.43-2H108a2.48 2.48 0 0 0-2.44 2l-.77 3.86c-.62.14-1.23.31-1.85.5l-2.47-2.77a2.48 2.48 0 0 0-2.82-.62 37.09 37.09 0 0 0-7.82 4.56 2.5 2.5 0 0 0-.83 2.76l1.14 3.47c-.47.44-.93.9-1.37 1.37l-3.47-1.14a2.49 2.49 0 0 0-2.76.86A37.45 37.45 0 0 0 78 35.58a2.48 2.48 0 0 0 .63 2.83l2.76 2.47c-.19.62-.35 1.23-.5 1.85L77 43.5a2.48 2.48 0 0 0-2 2.43v8.47a2.49 2.49 0 0 0 2 2.44l3.86.77c.15.61.31 1.23.5 1.84l-2.76 2.48a2.46 2.46 0 0 0-.6 2.82 37.2 37.2 0 0 0 4.56 7.81 2.49 2.49 0 0 0 2.76.87l3.47-1.14c.44.47.9.92 1.37 1.37L89 77.13a2.47 2.47 0 0 0 .86 2.75 37.13 37.13 0 0 0 7.82 4.57 2.5 2.5 0 0 0 2.82-.63l2.5-2.76c.62.19 1.23.35 1.85.5l.77 3.86a2.48 2.48 0 0 0 2.43 2h8.47a2.49 2.49 0 0 0 2.44-2l.77-3.86c.61-.15 1.23-.31 1.85-.5l2.42 2.76a2.46 2.46 0 0 0 2.82.63 37.13 37.13 0 0 0 7.82-4.57 2.49 2.49 0 0 0 .86-2.75l-1.14-3.47c.47-.45.93-.9 1.37-1.37l3.47 1.14a2.49 2.49 0 0 0 2.75-.86 37.13 37.13 0 0 0 4.57-7.82 2.46 2.46 0 0 0-.63-2.82l-2.76-2.48c.19-.61.35-1.23.5-1.84l3.86-.77a2.49 2.49 0 0 0 2-2.44v-8.47a2.48 2.48 0 0 0-1.99-2.43zm-3 8.87l-3.47.69a2.48 2.48 0 0 0-2 2 28.22 28.22 0 0 1-1.16 4.33 2.48 2.48 0 0 0 .68 2.69l2.6 2.33a31.78 31.78 0 0 1-2.15 3.73l-3.28-1.08a2.48 2.48 0 0 0-2.67.76A28.93 28.93 0 0 1 129.9 71a2.46 2.46 0 0 0-.75 2.66l1.07 3.34a33.1 33.1 0 0 1-3.73 2.19l-2.34-2.61a2.5 2.5 0 0 0-2.69-.68 26.88 26.88 0 0 1-4.33 1.1 2.48 2.48 0 0 0-2 2l-.69 3.47h-4.4l-.68-3.47a2.48 2.48 0 0 0-2-2 26.88 26.88 0 0 1-4.36-1.15 2.49 2.49 0 0 0-2.69.68L98 79.14a31.73 31.73 0 0 1-3.73-2.2l1.07-3.28A2.48 2.48 0 0 0 94.6 71a27.29 27.29 0 0 1-3.18-3.18 2.49 2.49 0 0 0-2.67-.75l-3.28 1.08a31.78 31.78 0 0 1-2.19-3.74l2.6-2.33a2.48 2.48 0 0 0 .68-2.69 28.22 28.22 0 0 1-1.16-4.33 2.48 2.48 0 0 0-2-2l-3.4-.7V48l3.47-.69a2.48 2.48 0 0 0 2-2A27.8 27.8 0 0 1 86.56 41a2.47 2.47 0 0 0-.68-2.69l-2.6-2.34a32.62 32.62 0 0 1 2.19-3.74l3.28 1.08a2.47 2.47 0 0 0 2.67-.75 27.29 27.29 0 0 1 3.18-3.18 2.48 2.48 0 0 0 .75-2.67l-1.07-3.28A31.73 31.73 0 0 1 98 21.19l2.34 2.61a2.49 2.49 0 0 0 2.69.68 26.88 26.88 0 0 1 4.33-1.17 2.47 2.47 0 0 0 2-2l.69-3.47h4.4l.69 3.47a2.47 2.47 0 0 0 2 2 26.88 26.88 0 0 1 4.33 1.17 2.5 2.5 0 0 0 2.69-.68l2.34-2.61a31.73 31.73 0 0 1 3.73 2.2l-1.07 3.28a2.47 2.47 0 0 0 .75 2.67 28.09 28.09 0 0 1 3.18 3.18 2.5 2.5 0 0 0 2.67.75l3.24-1.08a32.62 32.62 0 0 1 2.19 3.74l-2.6 2.34a2.47 2.47 0 0 0-.68 2.69 27.8 27.8 0 0 1 1.16 4.32 2.48 2.48 0 0 0 2 2l3.47.69z" style="" fill="#111111"/><path class="cls-1" d="M49.67 103.31l-22.35-29.8a2.56 2.56 0 0 0-3.62-.35 1.93 1.93 0 0 0-.35.35L1 103.31a2.47 2.47 0 0 0-.24 2.6l9.67 19.34V147a2.49 2.49 0 0 0 2.49 2.48h24.83a2.48 2.48 0 0 0 2.48-2.48v-21.75l9.67-19.34a2.47 2.47 0 0 0-.23-2.6zm-14.4 41.22H15.4v-17.38h19.87zm.95-22.35H14.45l-8.56-17.12 17-22.61V98a5 5 0 1 0 6.79 1.82A5 5 0 0 0 27.82 98V82.45l17 22.61z" style="" fill="#111111"/><path class="cls-1" d="M97.05 111.07L79.67 78.79a2.57 2.57 0 0 0-4.37 0l-17.39 32.28a2.54 2.54 0 0 0-.29 1.18V147a2.48 2.48 0 0 0 2.48 2.48h34.77a2.48 2.48 0 0 0 2.48-2.48v-34.75a2.44 2.44 0 0 0-.3-1.18zM77.48 85.2L80 89.9h-5zm-5.2 9.67h10.41l8 14.9H64.26zm-4.73 49.66h-5v-29.8h5zm14.9 0h-9.93v-29.8h9.93zm9.93 0h-5v-29.8h5z" style="" fill="#111111"/><path class="cls-1" d="M147 94.87h-34.75a2.48 2.48 0 0 0-2.48 2.48V147a2.48 2.48 0 0 0 2.48 2.48H147a2.48 2.48 0 0 0 2.5-2.48V97.35a2.48 2.48 0 0 0-2.5-2.48zm-2.49 10.06h-7.45v5h7.45v4.83h-12.39v5h12.41v5h-7.45v5h7.45v5h-12.41v5h12.41v5h-29.8V99.83h29.8z" style="" fill="#111111"/></g></svg>