<?xml version="1.0" encoding="UTF-8"?>
<svg width="248px" height="116px" viewBox="0 0 248 116" version="1.1" xmlns="http://www.w3.org/2000/svg" xmlns:xlink="http://www.w3.org/1999/xlink">
    <!-- Generator: Sketch 52.1 (67048) - http://www.bohemiancoding.com/sketch -->
    <title>harmony-at-nu</title>
    <desc>Created with Sketch.</desc>
    <g id="harmony-at-nu" stroke="none" stroke-width="1" fill="none" fill-rule="evenodd">
        <g id="Group" transform="translate(39.000000, 0.000000)" fill="#717271">
            <path d="M12.8,4.7 C11.9,3.3 10.4,2.7 8.8,2.7 C6.5,2.7 4.1,3.8 4.1,6.4 C4.1,8.4 5.2,9.4 8.8,10.5 C12.3,11.6 15.5,12.7 15.5,17.1 C15.5,21.5 11.7,23.6 7.7,23.6 C5.1,23.6 2.4,22.8 0.9,20.5 L3.2,18.6 C4.1,20.2 6,21.1 7.9,21.1 C10.2,21.1 12.7,19.8 12.7,17.2 C12.7,14.5 10.8,14 6.9,12.7 C3.8,11.7 1.4,10.3 1.4,6.6 C1.4,2.3 5.1,0.2 9,0.2 C11.5,0.2 13.6,0.9 15.2,2.8 L12.8,4.7 Z" id="Path"></path>
            <path d="M29.7,4.2 L25,15.1 L34.1,15.1 L29.7,4.2 Z M28.5,0.8 L31,0.8 L40.4,23 L37.3,23 L35,17.5 L24,17.5 L21.7,23 L18.7,23 L28.5,0.8 Z" id="Shape" fill-rule="nonzero"></path>
            <polygon id="Path" points="44.9 0.8 48.3 0.8 61.1 19.3 61.2 19.3 61.2 0.8 63.8 0.8 63.8 23 60.5 23 47.6 4.6 47.6 4.6 47.6 23 44.9 23"></polygon>
            <polygon id="Path" points="70.9 0.8 84.7 0.8 84.7 3.2 73.6 3.2 73.6 10.6 83.9 10.6 83.9 13 73.6 13 73.6 23 70.9 23"></polygon>
            <path d="M109.1,11.9 C109.1,6.8 105.5,2.7 100.3,2.7 C95.1,2.7 91.5,6.8 91.5,11.9 C91.5,17 95.1,21.1 100.3,21.1 C105.5,21.1 109.1,17 109.1,11.9 Z M88.7,11.9 C88.7,5.2 93.6,0.2 100.3,0.2 C107,0.2 111.9,5.2 111.9,11.9 C111.9,18.6 107,23.6 100.3,23.6 C93.5,23.6 88.7,18.6 88.7,11.9 Z" id="Shape" fill-rule="nonzero"></path>
            <path d="M120.3,10.6 L122.7,10.6 C125.6,10.6 129.4,10.6 129.4,6.9 C129.4,3.7 126.6,3.2 124,3.2 L120.3,3.2 L120.3,10.6 Z M117.7,0.8 L123.4,0.8 C127.7,0.8 132.3,1.4 132.3,6.9 C132.3,10.1 130.2,12.2 126.7,12.8 L133,23 L129.8,23 L123.8,13 L120.4,13 L120.4,23 L117.8,23 L117.8,0.8 L117.7,0.8 Z" id="Shape" fill-rule="nonzero"></path>
            <path d="M140.7,20.6 L145.7,20.6 C150.8,20.6 154.6,18 154.6,11.9 C154.6,5.8 150.7,3.2 145.7,3.2 L140.7,3.2 L140.7,20.6 Z M138,0.8 L146.5,0.8 C150.9,0.8 157.4,3.7 157.4,11.9 C157.4,20.1 150.9,23 146.5,23 L138,23 L138,0.8 Z" id="Shape" fill-rule="nonzero"></path>
            <path d="M12.8,4.7 C11.9,3.3 10.4,2.7 8.8,2.7 C6.5,2.7 4.1,3.8 4.1,6.4 C4.1,8.4 5.2,9.4 8.8,10.5 C12.3,11.6 15.5,12.7 15.5,17.1 C15.5,21.5 11.7,23.6 7.7,23.6 C5.1,23.6 2.4,22.8 0.9,20.5 L3.2,18.6 C4.1,20.2 6,21.1 7.9,21.1 C10.2,21.1 12.7,19.8 12.7,17.2 C12.7,14.5 10.8,14 6.9,12.7 C3.8,11.7 1.4,10.3 1.4,6.6 C1.4,2.3 5.1,0.2 9,0.2 C11.5,0.2 13.6,0.9 15.2,2.8 L12.8,4.7 Z" id="Path"></path>
            <path d="M29.7,4.2 L25,15.1 L34.1,15.1 L29.7,4.2 Z M28.5,0.8 L31,0.8 L40.4,23 L37.3,23 L35,17.5 L24,17.5 L21.7,23 L18.7,23 L28.5,0.8 Z" id="Shape" fill-rule="nonzero"></path>
            <polygon id="Path" points="44.9 0.8 48.3 0.8 61.1 19.3 61.2 19.3 61.2 0.8 63.8 0.8 63.8 23 60.5 23 47.6 4.6 47.6 4.6 47.6 23 44.9 23"></polygon>
            <polygon id="Path" points="70.9 0.8 84.7 0.8 84.7 3.2 73.6 3.2 73.6 10.6 83.9 10.6 83.9 13 73.6 13 73.6 23 70.9 23"></polygon>
            <path d="M109.1,11.9 C109.1,6.8 105.5,2.7 100.3,2.7 C95.1,2.7 91.5,6.8 91.5,11.9 C91.5,17 95.1,21.1 100.3,21.1 C105.5,21.1 109.1,17 109.1,11.9 Z M88.7,11.9 C88.7,5.2 93.6,0.2 100.3,0.2 C107,0.2 111.9,5.2 111.9,11.9 C111.9,18.6 107,23.6 100.3,23.6 C93.5,23.6 88.7,18.6 88.7,11.9 Z" id="Shape" fill-rule="nonzero"></path>
            <path d="M120.3,10.6 L122.7,10.6 C125.6,10.6 129.4,10.6 129.4,6.9 C129.4,3.7 126.6,3.2 124,3.2 L120.3,3.2 L120.3,10.6 Z M117.7,0.8 L123.4,0.8 C127.7,0.8 132.3,1.4 132.3,6.9 C132.3,10.1 130.2,12.2 126.7,12.8 L133,23 L129.8,23 L123.8,13 L120.4,13 L120.4,23 L117.8,23 L117.8,0.8 L117.7,0.8 Z" id="Shape" fill-rule="nonzero"></path>
            <path d="M140.7,20.6 L145.7,20.6 C150.8,20.6 154.6,18 154.6,11.9 C154.6,5.8 150.7,3.2 145.7,3.2 L140.7,3.2 L140.7,20.6 Z M138,0.8 L146.5,0.8 C150.9,0.8 157.4,3.7 157.4,11.9 C157.4,20.1 150.9,23 146.5,23 L138,23 L138,0.8 Z" id="Shape" fill-rule="nonzero"></path>
        </g>
        <path d="M219,68.4 L225.5,68.4 L225.5,54.3 L237.2,32.7 L230.3,32.7 L222.5,47.7 L214.8,32.7 L207.2,32.7 L219.1,54.3 L219.1,68.4 L219,68.4 Z M176.4,68.4 L182.6,68.4 L182.6,41.7 L182.7,41.7 L195.1,68.4 L203.1,68.4 L203.1,32.8 L196.9,32.8 L196.9,59.5 L196.8,59.5 L184.4,32.8 L176.4,32.8 L176.4,68.4 Z M145.7,50.5 C145.7,44.2 148.4,37.8 154.8,37.8 C161.3,37.8 163.9,44.2 163.9,50.5 C163.9,56.9 161.4,63.4 154.8,63.4 C148.2,63.4 145.7,56.9 145.7,50.5 Z M138.9,50.5 C138.9,61.4 144.4,69 154.8,69 C165.1,69 170.7,61.2 170.7,50.5 C170.7,39.7 165,32.2 154.8,32.2 C144.5,32.2 138.9,39.6 138.9,50.5 Z M96.5,68.4 L102.7,68.4 L102.7,39.1 L102.8,39 L111.6,68.4 L117.8,68.4 L126.6,39 L126.7,39 L126.7,68.4 L132.9,68.4 L132.9,32.8 L122.5,32.8 L114.8,59.8 L114.7,59.8 L107,32.8 L96.6,32.8 L96.6,68.4 L96.5,68.4 Z M67.5,68.4 L74,68.4 L74,53.6 L76.1,53.6 C78.8,53.6 79.7,54.6 80.6,57.3 L84.5,68.4 L91.8,68.4 L86.6,54.5 C85.9,52.9 84.9,51 83.2,50.8 L83.2,50.7 C87.3,50.1 89.9,46.6 89.9,42.4 C89.9,32.5 81.6,32.7 74.6,32.7 L67.6,32.7 L67.6,68.4 L67.5,68.4 Z M74,38.4 L76.1,38.4 C79.4,38.4 83,38.8 83,43 C83,47.4 79.3,48 76.1,48 L74,48 L74,38.4 Z M31,68.4 L37.8,68.4 L40.6,60.2 L53.8,60.2 L56.6,68.4 L63.8,68.4 L51,32.8 L43.6,32.8 L31,68.4 Z M52,54.6 L42.5,54.6 L47.2,39.9 L47.3,39.9 L52,54.6 Z M0.8,68.4 L7.3,68.4 L7.3,52.8 L20.3,52.8 L20.3,68.4 L26.8,68.4 L26.8,32.8 L20.3,32.8 L20.3,47.2 L7.3,47.2 L7.3,32.8 L0.8,32.8 L0.8,68.4 Z" id="Shape" fill="#96C93D" fill-rule="nonzero"></path>
        <polygon id="Path" fill="#96C93D" points="239.7 33.5 238.3 33.5 238.3 32.8 241.9 32.8 241.9 33.5 240.5 33.5 240.5 37.5 239.7 37.5"></polygon>
        <path d="M246.3,35.6 C246.3,35 246.2,34.2 246.2,33.6 C246,34.2 245.8,34.8 245.6,35.4 L244.9,37.5 L244.2,37.5 L243.6,35.5 C243.4,34.9 243.3,34.2 243.1,33.7 C243.1,34.3 243.1,35.1 243,35.7 L242.9,37.6 L242.1,37.6 L242.4,32.9 L243.5,32.9 L244.1,34.8 C244.3,35.4 244.4,35.9 244.5,36.4 C244.6,35.9 244.8,35.3 245,34.7 L245.7,32.8 L246.8,32.8 L247.1,37.5 L246.3,37.5 L246.3,35.6 Z" id="Path" fill="#96C93D"></path>
        <g id="Group" transform="translate(11.000000, 103.000000)" fill="#717271">
            <path d="M11.7,1.7 C11.4,1.7 11.1,1.7 11,1.8 C10.9,1.9 10.8,2 10.7,2.2 C10.6,2.4 10.6,2.9 10.6,3.7 C10.6,4.5 10.6,5.7 10.6,7.3 C10.6,8.4 10.6,9.1 10.6,9.6 C10.6,10.1 10.6,10.5 10.6,11.1 C10.6,11.3 10.6,11.4 10.6,11.6 C10.6,11.7 10.6,12 10.6,12.3 C10.6,12.6 10.6,12.8 10.6,13 C10.4,12.7 10,12.2 9.6,11.7 C9.2,11.1 8.6,10.3 7.8,9.3 C7,8.3 6.4,7.5 5.8,6.8 C5.5,6.5 5.1,5.9 4.4,5 C3.7,4.1 3.2,3.4 2.9,3 C2.9,3.1 2.9,3.2 2.9,3.5 C2.9,3.8 2.9,4.1 2.9,4.5 C2.9,4.9 2.9,5.7 2.9,7 C2.9,8.5 2.9,9.6 2.9,10.2 C2.9,10.9 3,11.3 3,11.5 C3.1,11.7 3.2,11.8 3.4,11.9 C3.6,12 3.8,12 4.2,12 L4.2,12.4 C4.1,12.4 3.8,12.4 3.5,12.4 C3.2,12.4 2.9,12.4 2.6,12.4 C2.3,12.4 2,12.4 1.6,12.4 C1.2,12.4 1,12.4 0.9,12.4 L0.9,12 C1.2,12 1.5,12 1.6,11.9 C1.7,11.8 1.9,11.7 1.9,11.5 C2,11.3 2,10.9 2,10.2 C2,9.5 2,8.3 2,6.4 L2,2.5 C2,2.4 1.9,2.2 1.7,2.1 C1.5,2 1.2,1.8 0.6,1.8 L0.6,1.3 C0.8,1.3 1,1.3 1.2,1.3 C1.5,1.3 1.7,1.3 1.8,1.3 L2,1.3 C2.8,1.3 3.2,1.3 3.3,1.3 C3.5,1.5 3.7,1.8 4,2.2 C4.3,2.6 4.7,3.1 5.1,3.7 C5.6,4.3 6.2,5 6.9,6 C7.1,6.2 7.3,6.4 7.4,6.6 C7.5,6.8 7.8,7 8,7.4 C8.3,7.8 8.6,8.1 8.8,8.5 C9.1,8.8 9.3,9.2 9.6,9.6 C9.6,9.5 9.6,9.2 9.6,8.7 C9.6,8.2 9.6,7.6 9.6,6.8 C9.6,5.1 9.6,3.9 9.6,3.4 C9.6,2.8 9.5,2.5 9.5,2.3 C9.4,2.1 9.3,2 9.1,1.9 C8.9,1.8 8.7,1.8 8.3,1.8 L8.3,1.3 C8.5,1.3 8.8,1.3 9.1,1.3 C9.4,1.3 9.7,1.3 9.9,1.3 C10,1.3 10.2,1.3 10.6,1.3 C11,1.3 11.3,1.3 11.5,1.3 L11.5,1.7 L11.7,1.7 Z" id="Path"></path>
            <path d="M24.4,12.2 C24.1,12.2 23.8,12.2 23.4,12.2 C23,12.2 22.7,12.2 22.5,12.2 C22.3,12.2 22,12.2 21.5,12.2 C21.1,12.2 20.7,12.2 20.5,12.2 L20.5,11.8 C20.9,11.8 21.2,11.8 21.4,11.7 C21.6,11.6 21.6,11.5 21.6,11.3 C21.6,11.2 21.5,10.9 21.4,10.5 L20.3,7.7 L16.8,7.7 L15.8,10.1 C15.6,10.6 15.5,11 15.5,11.1 C15.5,11.3 15.6,11.5 15.8,11.6 C16,11.7 16.3,11.8 16.8,11.8 L16.8,12.2 C16.6,12.2 16.3,12.2 15.8,12.2 C15.3,12.2 15,12.2 14.8,12.2 C14.6,12.2 14.3,12.2 13.9,12.2 C13.6,12.2 13.3,12.2 13.2,12.2 L13.2,11.8 C13.6,11.8 13.9,11.7 14.1,11.5 C14.3,11.3 14.5,11 14.7,10.5 L19,0.6 L22.5,9.5 C22.6,9.8 22.7,10 22.8,10.3 C22.9,10.6 23,10.8 23.2,11.1 C23.3,11.3 23.5,11.5 23.7,11.7 C23.9,11.8 24.1,11.9 24.4,11.9 L24.4,12.2 Z M20.1,7 C19.8,6.3 19.6,5.7 19.4,5.3 C19.2,4.9 19.1,4.5 18.9,4.2 C18.7,3.8 18.6,3.6 18.6,3.5 C18.4,3.9 18.2,4.3 18.1,4.7 C17.9,5.1 17.8,5.4 17.7,5.6 C17.6,5.8 17.5,6.1 17.4,6.4 C17.3,6.7 17.2,6.9 17.1,7 L20.1,7 Z" id="Shape" fill-rule="nonzero"></path>
            <path d="M34.7,3.5 L34.2,3.5 C34.2,3.1 34.2,2.7 34.1,2.5 C34,2.3 33.9,2.1 33.7,2.1 C33.5,2 33.2,2 32.8,2 L31,2 L31,6.2 C31,9.4 31,11.1 31.1,11.3 C31.2,11.5 31.3,11.6 31.4,11.7 C31.6,11.8 31.8,11.8 32.1,11.8 L32.1,12.2 C31.9,12.2 31.7,12.2 31.3,12.2 C30.9,12.2 30.6,12.2 30.3,12.2 C30.1,12.2 29.8,12.2 29.3,12.2 C28.8,12.2 28.5,12.2 28.3,12.2 L28.3,11.8 C28.6,11.8 28.9,11.8 29,11.7 C29.1,11.6 29.3,11.5 29.3,11.3 C29.3,11.2 29.4,10.9 29.4,10.5 C29.4,10.1 29.4,9.5 29.4,8.9 C29.4,8.3 29.4,7.4 29.4,6.2 C29.4,4.3 29.4,2.8 29.4,1.9 L27.6,1.9 C27.2,1.9 26.8,1.9 26.6,2 C26.4,2.1 26.2,2.2 26.2,2.5 C26.1,2.7 26.1,3 26.1,3.4 L25.6,3.4 C25.6,3.3 25.6,3.1 25.6,2.7 C25.6,2.4 25.6,2.1 25.6,2 C25.6,1.6 25.6,1.3 25.6,1.1 C25.9,1.1 26.4,1.1 27.3,1.1 C28.2,1.1 29,1.1 29.9,1.1 C30.6,1.1 31.6,1.1 32.7,1.1 C33.8,1.1 34.5,1.1 34.7,1.1 C34.7,1.4 34.7,1.7 34.7,2 C34.7,2.3 34.7,2.5 34.7,2.8 C34.7,3.2 34.7,3.4 34.7,3.5 Z" id="Path"></path>
            <path d="M42.4,12.2 C42.1,12.2 41.7,12.2 41.4,12.2 C41,12.2 40.7,12.2 40.5,12.2 C40.4,12.2 40.1,12.2 39.7,12.2 C39.3,12.2 39,12.2 38.6,12.2 L38.6,11.8 C38.9,11.8 39.1,11.8 39.3,11.7 C39.5,11.6 39.6,11.5 39.7,11.3 C39.7,11.2 39.8,11 39.8,10.7 C39.8,10.4 39.8,10 39.8,9.4 C39.8,8.8 39.8,7.7 39.8,6.2 L39.8,6 C39.8,4.5 39.8,3.5 39.8,3 C39.8,2.5 39.8,2.2 39.7,2 C39.6,1.8 39.5,1.7 39.3,1.6 C39.1,1.5 38.9,1.5 38.6,1.5 L38.6,1.1 C38.9,1.1 39.2,1.1 39.6,1.1 C40,1.1 40.3,1.1 40.6,1.1 C40.7,1.1 41,1.1 41.4,1.1 C41.8,1.1 42.1,1.1 42.5,1.1 L42.5,1.5 C42.2,1.5 42,1.5 41.8,1.6 C41.6,1.7 41.5,1.8 41.5,1.9 C41.4,2.1 41.4,2.4 41.4,3.1 C41.4,3.7 41.4,4.7 41.4,6.1 L41.4,6.2 C41.4,7.1 41.4,8 41.4,8.8 C41.4,9.6 41.4,10.2 41.4,10.5 C41.4,10.8 41.4,11 41.5,11.1 C41.6,11.3 41.7,11.5 41.9,11.5 C42.1,11.6 42.3,11.6 42.6,11.6 L42.6,12.2 L42.4,12.2 Z" id="Path"></path>
            <path d="M56.9,6.7 C56.9,7.5 56.8,8.3 56.5,9 C56.2,9.7 55.8,10.3 55.3,10.8 C54.8,11.3 54.2,11.7 53.5,12 C52.8,12.3 52.1,12.4 51.3,12.4 C50.5,12.4 49.7,12.3 49,12 C48.3,11.7 47.7,11.3 47.2,10.8 C46.7,10.3 46.3,9.7 46.1,9 C45.8,8.3 45.7,7.5 45.7,6.7 C45.7,6.1 45.8,5.5 46,4.8 C46.2,4.1 46.5,3.5 47,3 C47.5,2.4 48,2 48.8,1.6 C49.5,1.2 50.4,1.1 51.3,1.1 C52.2,1.1 52.9,1.2 53.6,1.5 C54.3,1.8 54.9,2.2 55.4,2.7 C55.9,3.2 56.2,3.8 56.5,4.5 C56.8,5.2 56.9,5.9 56.9,6.7 Z M55.2,6.7 C55.2,6.2 55.1,5.7 55,5.1 C54.9,4.5 54.7,4 54.4,3.4 C54.1,2.9 53.7,2.4 53.2,2.1 C52.7,1.8 52.1,1.6 51.3,1.6 C50.7,1.6 50.1,1.7 49.6,2 C49.1,2.2 48.7,2.6 48.4,3 C48.1,3.4 47.9,4 47.7,4.5 C47.6,5.1 47.5,5.7 47.5,6.3 C47.5,7.3 47.7,8.3 48,9.1 C48.3,9.9 48.8,10.6 49.4,11 C50,11.5 50.7,11.7 51.5,11.7 C52.7,11.7 53.6,11.3 54.2,10.4 C54.8,9.6 55.2,8.3 55.2,6.7 Z" id="Shape" fill-rule="nonzero"></path>
            <path d="M70.4,1.7 C70.1,1.7 69.8,1.7 69.7,1.8 C69.6,1.9 69.5,2 69.4,2.2 C69.3,2.4 69.3,2.9 69.3,3.7 C69.3,4.5 69.3,5.7 69.3,7.3 C69.3,8.4 69.3,9.1 69.3,9.6 C69.3,10.1 69.3,10.5 69.3,11.1 C69.3,11.3 69.3,11.4 69.3,11.6 C69.3,11.7 69.3,12 69.3,12.3 C69.3,12.6 69.3,12.8 69.3,13 C69.1,12.7 68.7,12.2 68.3,11.7 C67.9,11.1 67.3,10.3 66.5,9.3 C65.7,8.3 65.1,7.5 64.5,6.8 C64.2,6.5 63.8,5.9 63.1,5 C62.4,4.1 61.9,3.4 61.6,3 C61.6,3.1 61.6,3.2 61.6,3.5 C61.6,3.8 61.6,4.1 61.6,4.5 C61.6,4.9 61.6,5.7 61.6,7 C61.6,8.5 61.6,9.6 61.6,10.2 C61.6,10.9 61.7,11.3 61.7,11.5 C61.8,11.7 61.9,11.8 62.1,11.9 C62.3,12 62.5,12 62.9,12 L62.9,12.4 C62.8,12.4 62.5,12.4 62.2,12.4 C61.9,12.4 61.6,12.4 61.3,12.4 C61,12.4 60.7,12.4 60.3,12.4 C59.9,12.4 59.7,12.4 59.6,12.4 L59.6,12 C59.9,12 60.2,12 60.3,11.9 C60.5,11.8 60.6,11.7 60.6,11.5 C60.7,11.3 60.7,10.9 60.7,10.2 C60.7,9.5 60.7,8.3 60.7,6.4 L60.7,2.5 C60.7,2.4 60.6,2.2 60.4,2.1 C60.2,1.9 59.9,1.8 59.3,1.8 L59.3,1.3 C59.5,1.3 59.7,1.3 59.9,1.3 C60.2,1.3 60.4,1.3 60.5,1.3 L60.7,1.3 C61.5,1.3 61.9,1.3 62,1.3 C62.2,1.5 62.4,1.8 62.7,2.2 C63,2.6 63.4,3.1 63.8,3.7 C64.3,4.3 64.9,5 65.6,6 C65.8,6.2 66,6.4 66.1,6.6 C66.2,6.8 66.5,7 66.7,7.4 C67,7.8 67.3,8.1 67.5,8.5 C67.8,8.8 68,9.2 68.3,9.6 C68.3,9.5 68.3,9.2 68.3,8.7 C68.3,8.2 68.3,7.6 68.3,6.8 C68.3,5.1 68.3,3.9 68.3,3.4 C68.3,2.8 68.2,2.5 68.2,2.3 C68.1,2.1 68,2 67.8,1.9 C67.6,1.8 67.4,1.8 67,1.8 L67,1.3 C67.2,1.3 67.5,1.3 67.8,1.3 C68.1,1.3 68.4,1.3 68.6,1.3 C68.7,1.3 68.9,1.3 69.3,1.3 C69.7,1.3 70,1.3 70.2,1.3 L70.2,1.7 L70.4,1.7 Z" id="Path"></path>
            <path d="M83.2,12.2 C82.9,12.2 82.6,12.2 82.2,12.2 C81.8,12.2 81.5,12.2 81.3,12.2 C81.1,12.2 80.8,12.2 80.3,12.2 C79.9,12.2 79.5,12.2 79.3,12.2 L79.3,11.8 C79.7,11.8 80,11.8 80.2,11.7 C80.4,11.6 80.4,11.5 80.4,11.3 C80.4,11.2 80.3,10.9 80.2,10.5 L79.1,7.7 L75.6,7.7 L74.6,10.1 C74.4,10.6 74.3,11 74.3,11.1 C74.3,11.3 74.4,11.5 74.6,11.6 C74.8,11.7 75.1,11.8 75.6,11.8 L75.6,12.2 C75.4,12.2 75.1,12.2 74.6,12.2 C74.1,12.2 73.8,12.2 73.6,12.2 C73.4,12.2 73.1,12.2 72.7,12.2 C72.4,12.2 72.1,12.2 72,12.2 L72,11.8 C72.4,11.8 72.7,11.7 72.9,11.5 C73.1,11.3 73.3,11 73.5,10.5 L77.8,0.6 L81.3,9.5 C81.4,9.8 81.5,10 81.6,10.3 C81.7,10.6 81.8,10.8 82,11.1 C82.1,11.3 82.3,11.5 82.5,11.7 C82.7,11.8 82.9,11.9 83.2,11.9 L83.2,12.2 Z M78.9,7 C78.6,6.3 78.4,5.7 78.2,5.3 C78,4.9 77.9,4.5 77.7,4.2 C77.5,3.8 77.4,3.6 77.4,3.5 C77.2,3.9 77,4.3 76.9,4.7 C76.7,5.1 76.6,5.4 76.5,5.6 C76.4,5.8 76.3,6.1 76.2,6.4 C76.1,6.7 76,6.9 75.9,7 L78.9,7 Z" id="Shape" fill-rule="nonzero"></path>
            <path d="M93.3,12.3 C93,12.3 92.6,12.3 92,12.3 C91.4,12.3 90.9,12.3 90.4,12.3 C89.9,12.3 89.4,12.3 89.1,12.3 C88.8,12.3 88.4,12.3 87.9,12.3 C87.7,12.3 87.4,12.3 86.9,12.3 C86.4,12.3 86.2,12.3 86.1,12.3 L86.1,11.9 C86.4,11.9 86.6,11.9 86.8,11.8 C87,11.7 87.1,11.6 87.1,11.4 C87.2,11.2 87.2,10.8 87.2,10.2 C87.2,9.6 87.2,8.3 87.2,6.3 L87.2,6.1 C87.2,4.6 87.2,3.6 87.2,3.1 C87.2,2.6 87.2,2.3 87.1,2.1 C87,1.9 86.9,1.8 86.8,1.7 C86.6,1.6 86.4,1.6 86.1,1.6 L86.1,1.2 C86.4,1.2 86.7,1.2 87.1,1.2 C87.5,1.2 87.8,1.2 88,1.2 C88.3,1.2 88.6,1.2 88.9,1.2 C89.2,1.2 89.5,1.2 89.9,1.2 L89.9,1.6 C89.6,1.6 89.4,1.6 89.2,1.7 C89,1.8 88.9,1.9 88.9,2 C88.8,2.2 88.8,2.6 88.8,3.2 C88.8,3.8 88.8,4.8 88.8,6.2 L88.8,7.3 C88.8,8.4 88.8,9.1 88.8,9.6 C88.8,10.1 88.8,10.4 88.8,10.6 C88.8,10.8 88.8,11 88.9,11.1 C88.9,11.2 89,11.3 89.1,11.3 C89.2,11.4 89.4,11.5 89.7,11.5 C90,11.5 90.3,11.6 90.8,11.6 C91.2,11.6 91.6,11.6 91.8,11.5 C92.1,11.4 92.3,11.3 92.5,11.2 C92.7,11 92.9,10.6 92.9,10.1 L93.4,10.1 C93.4,10.2 93.4,10.4 93.4,10.7 C93.4,11 93.4,11.4 93.4,11.8 C93.4,11.9 93.4,12 93.4,12.1 C93.3,12.1 93.3,12.2 93.3,12.3 Z" id="Path"></path>
            <path d="M113.8,1.7 C113.5,1.7 113.2,1.7 113,1.8 C112.8,1.8 112.7,2 112.6,2.1 C112.5,2.4 112.4,4 112.4,6.9 C112.4,7.8 112.3,8.5 112.2,9.2 C112.1,9.8 111.9,10.4 111.6,10.9 C111.3,11.4 110.9,11.8 110.3,12.1 C109.7,12.4 108.9,12.5 108,12.5 C106.8,12.5 105.8,12.2 105,11.6 C104.2,11 103.8,10 103.8,8.6 L103.8,3.7 C103.8,2.8 103.8,2.3 103.7,2.1 C103.6,1.9 103.5,1.8 103.4,1.7 C103.2,1.6 103,1.6 102.6,1.6 L102.6,1.2 C102.8,1.2 103.1,1.2 103.5,1.2 C103.9,1.2 104.2,1.2 104.5,1.2 C104.8,1.2 105.1,1.2 105.5,1.2 C105.9,1.2 106.2,1.2 106.4,1.2 L106.4,1.6 C106.1,1.6 105.8,1.6 105.7,1.7 C105.5,1.8 105.4,1.9 105.4,2 C105.3,2.3 105.2,3.7 105.2,6.2 C105.2,7.2 105.2,8 105.3,8.6 C105.3,9.2 105.5,9.7 105.7,10.2 C105.9,10.6 106.2,11 106.6,11.2 C107,11.4 107.6,11.5 108.3,11.5 C108.9,11.5 109.4,11.4 109.8,11.3 C110.2,11.1 110.6,10.9 110.8,10.5 C111.1,10.2 111.3,9.7 111.4,9.1 C111.5,8.5 111.6,7.8 111.6,7 L111.6,4.2 C111.6,3.8 111.6,3.4 111.5,2.9 C111.5,2.4 111.4,2.1 111.3,2 C111.2,1.8 111.1,1.7 110.9,1.7 C110.7,1.7 110.4,1.6 110,1.6 L110,1.2 C110.2,1.2 110.5,1.2 110.9,1.2 C111.3,1.2 111.7,1.2 112,1.2 C112.4,1.2 112.7,1.2 113,1.2 C113.3,1.2 113.6,1.2 113.7,1.2 L113.7,1.7 L113.8,1.7 Z" id="Path"></path>
            <path d="M128.1,1.7 C127.8,1.7 127.5,1.7 127.4,1.8 C127.3,1.9 127.2,2 127.1,2.2 C127,2.4 127,2.9 127,3.7 C127,4.5 127,5.7 127,7.3 C127,8.4 127,9.1 127,9.6 C127,10.1 127,10.5 127,11.1 C127,11.3 127,11.4 127,11.6 C127,11.7 127,12 127,12.3 C127,12.6 127,12.8 127,13 C126.8,12.7 126.4,12.2 126,11.7 C125.6,11.1 125,10.3 124.2,9.3 C123.4,8.3 122.8,7.5 122.2,6.8 C121.9,6.5 121.5,5.9 120.8,5 C120.1,4.1 119.6,3.4 119.3,3 C119.3,3.1 119.3,3.2 119.3,3.5 C119.3,3.8 119.3,4.1 119.3,4.5 C119.3,4.9 119.3,5.7 119.3,7 C119.3,8.5 119.3,9.6 119.3,10.2 C119.3,10.9 119.4,11.3 119.4,11.5 C119.5,11.7 119.6,11.8 119.8,11.9 C120,12 120.2,12 120.6,12 L120.6,12.4 C120.5,12.4 120.2,12.4 119.9,12.4 C119.6,12.4 119.3,12.4 119,12.4 C118.7,12.4 118.4,12.4 118,12.4 C117.6,12.4 117.4,12.4 117.3,12.4 L117.3,12 C117.6,12 117.9,12 118,11.9 C118.2,11.8 118.3,11.7 118.3,11.5 C118.4,11.3 118.4,10.9 118.4,10.2 C118.4,9.5 118.4,8.3 118.4,6.4 L118.4,2.5 C118.4,2.4 118.3,2.2 118.1,2.1 C117.9,2 117.6,1.8 117,1.8 L117,1.3 C117.2,1.3 117.4,1.3 117.6,1.3 C117.9,1.3 118.1,1.3 118.2,1.3 L118.4,1.3 C119.2,1.3 119.6,1.3 119.7,1.3 C119.9,1.5 120.1,1.8 120.4,2.2 C120.7,2.6 121.1,3.1 121.5,3.7 C122,4.3 122.6,5 123.3,6 C123.5,6.2 123.7,6.4 123.8,6.6 C123.9,6.8 124.2,7 124.4,7.4 C124.7,7.8 125,8.1 125.2,8.5 C125.5,8.8 125.7,9.2 126,9.6 C126,9.5 126,9.2 126,8.7 C126,8.2 126,7.6 126,6.8 C126,5.1 126,3.9 126,3.4 C126,2.8 125.9,2.5 125.9,2.3 C125.8,2.1 125.7,2 125.5,1.9 C125.3,1.8 125.1,1.8 124.7,1.8 L124.7,1.3 C124.9,1.3 125.2,1.3 125.5,1.3 C125.8,1.3 126.1,1.3 126.3,1.3 C126.4,1.3 126.6,1.3 127,1.3 C127.4,1.3 127.7,1.3 127.9,1.3 L127.9,1.7 L128.1,1.7 Z" id="Path"></path>
            <path d="M135.2,12.2 C134.9,12.2 134.5,12.2 134.2,12.2 C133.8,12.2 133.5,12.2 133.3,12.2 C133.2,12.2 132.9,12.2 132.5,12.2 C132.1,12.2 131.8,12.2 131.4,12.2 L131.4,11.8 C131.7,11.8 131.9,11.8 132.1,11.7 C132.3,11.6 132.4,11.5 132.5,11.3 C132.5,11.2 132.6,11 132.6,10.7 C132.6,10.4 132.6,10 132.6,9.4 C132.6,8.8 132.6,7.7 132.6,6.2 L132.6,6 C132.6,4.5 132.6,3.5 132.6,3 C132.6,2.5 132.6,2.2 132.5,2 C132.4,1.8 132.3,1.7 132.1,1.6 C131.9,1.5 131.7,1.5 131.4,1.5 L131.4,1.1 C131.7,1.1 132,1.1 132.4,1.1 C132.8,1.1 133.1,1.1 133.4,1.1 C133.5,1.1 133.8,1.1 134.2,1.1 C134.6,1.1 134.9,1.1 135.3,1.1 L135.3,1.5 C135,1.5 134.8,1.5 134.6,1.6 C134.4,1.7 134.3,1.8 134.3,1.9 C134.2,2.1 134.2,2.4 134.2,3.1 C134.2,3.7 134.2,4.7 134.2,6.1 L134.2,6.2 C134.2,7.1 134.2,8 134.2,8.8 C134.2,9.6 134.2,10.2 134.2,10.5 C134.2,10.8 134.2,11 134.3,11.1 C134.4,11.3 134.5,11.5 134.7,11.5 C134.9,11.6 135.1,11.6 135.4,11.6 L135.4,12.2 L135.2,12.2 Z" id="Path"></path>
            <path d="M148.8,1.7 C148.5,1.7 148.2,1.8 148,1.9 C147.8,2 147.6,2.3 147.4,2.7 C147.3,2.8 147.2,3 147.1,3.3 C147,3.5 146.8,3.9 146.6,4.5 C146.4,5 146.2,5.5 146.1,5.8 C146,6.1 145.8,6.6 145.5,7.1 C145.3,7.5 145,8.2 144.6,9.1 C144.2,10 143.9,10.8 143.6,11.4 C143.4,12 143.2,12.4 143.1,12.7 C143.1,12.6 142.9,12.2 142.8,11.7 C142.6,11.2 142.4,10.6 142.1,9.8 C141.8,9.1 141.6,8.5 141.5,8.2 C141.4,7.9 141.1,7.3 140.8,6.4 C140.4,5.3 140.1,4.4 139.8,3.7 C139.5,2.9 139.3,2.4 139.1,2.2 C139,2 138.8,1.8 138.6,1.7 C138.4,1.6 138.2,1.6 138,1.6 L138,1.1 C138.2,1.1 138.5,1.1 138.9,1.1 C139.3,1.1 139.6,1.1 139.9,1.1 C140.2,1.1 140.6,1.1 141.1,1.1 C141.5,1.1 141.8,1.1 141.9,1.1 L141.9,1.6 C141.2,1.6 140.8,1.7 140.8,2 C140.8,2.1 140.8,2.3 140.9,2.5 C141,2.7 141.1,3.1 141.4,3.8 C141.6,4.5 141.9,5.1 142.1,5.7 C142.4,6.4 142.6,7.2 143,8 C143.3,8.8 143.5,9.4 143.7,9.8 C143.9,9.4 144.1,8.7 144.5,7.9 C144.8,7.1 145.1,6.4 145.4,5.7 C146.2,3.8 146.6,2.6 146.6,2.2 C146.6,2 146.5,1.8 146.3,1.7 C146.1,1.6 145.7,1.5 145.3,1.5 L145.3,1 C145.5,1 145.8,1 146.3,1 C146.8,1 147.1,1 147.2,1 C147.4,1 147.8,1 148.1,1 C148.5,1 148.7,1 148.9,1 L148.9,1.7 L148.8,1.7 Z" id="Path"></path>
            <path d="M158.4,12.3 C158.1,12.3 157.3,12.3 155.9,12.3 C154.5,12.3 153.6,12.3 153.2,12.3 C152.8,12.3 152.4,12.3 151.9,12.3 C151.4,12.3 151.1,12.3 151,12.3 L151,11.9 C151.3,11.9 151.5,11.9 151.6,11.8 C151.7,11.7 151.9,11.6 152,11.4 C152,11.3 152.1,11.1 152.1,10.8 C152.1,10.5 152.1,10 152.1,9.4 C152.1,8.8 152.1,7.7 152.1,6.3 L152.1,6.1 C152.1,4.6 152.1,3.6 152.1,3.1 C152.1,2.6 152.1,2.3 152,2.1 C151.9,1.9 151.8,1.8 151.7,1.7 C151.5,1.6 151.3,1.6 150.9,1.6 L150.9,1.2 C151.1,1.2 151.4,1.2 151.8,1.2 C152.2,1.2 152.6,1.2 152.9,1.2 C153.1,1.2 153.7,1.2 154.7,1.2 C155.7,1.2 156.3,1.2 156.6,1.2 C156.9,1.2 157.3,1.2 157.7,1.2 L157.9,1.2 C157.9,1.3 157.9,1.4 157.9,1.6 C157.9,1.7 157.9,1.9 157.9,2.1 C157.9,2.4 157.9,2.6 157.9,2.8 C157.9,3 157.9,3.2 157.9,3.3 L157.4,3.3 C157.4,3 157.4,2.7 157.3,2.6 C157.3,2.4 157.1,2.3 157,2.2 C156.8,2.1 156.6,2.1 156.4,2 C156.1,2 155.7,2 155.2,2 C154.6,2 154,2 153.6,2 L153.6,6.2 C154,6.2 154.4,6.2 154.9,6.2 C155.6,6.2 156,6.2 156.3,6.1 C156.4,6.1 156.5,6 156.5,5.9 C156.6,5.8 156.6,5.6 156.7,5.4 C156.7,5.2 156.8,5.1 156.8,5 L157.3,5 C157.3,5 157.3,5.2 157.3,5.6 C157.3,6 157.3,6.2 157.3,6.4 C157.3,6.6 157.3,7 157.3,7.4 C157.3,7.8 157.3,8 157.3,8 L156.8,8 C156.8,7.5 156.7,7.2 156.6,7 C156.5,6.9 156.4,6.9 156.2,6.8 C156,6.8 155.6,6.8 155.1,6.8 C154.5,6.8 154,6.8 153.7,6.8 L153.7,9.5 C153.7,9.9 153.7,10.3 153.7,10.6 C153.7,10.9 153.8,11.1 153.9,11.2 C154,11.4 154.2,11.5 154.5,11.5 C154.8,11.5 155.2,11.6 155.8,11.6 C156.2,11.6 156.6,11.6 156.9,11.5 C157.2,11.4 157.5,11.3 157.6,11.2 C157.7,11.1 157.8,10.9 157.9,10.7 C158,10.5 158,10.3 158,10.1 L158.5,10.1 C158.5,10.1 158.5,10.2 158.5,10.4 C158.5,10.5 158.5,10.7 158.5,10.9 C158.5,11.1 158.5,11.4 158.5,11.9 C158.5,12 158.5,12.1 158.5,12.2 C158.4,12.1 158.4,12.2 158.4,12.3 Z" id="Path"></path>
            <path d="M171.1,12.2 L168.7,12.2 C168.7,12.1 168.6,12 168.4,11.8 C168.3,11.6 168,11.3 167.7,10.8 C167.4,10.3 167.1,9.9 167,9.7 C166.8,9.4 166.5,9 166.1,8.4 C165.7,7.8 165.4,7.4 165.3,7.2 C165.2,7.2 165,7.2 164.8,7.2 C164.7,7.2 164.4,7.2 163.9,7.2 C163.9,9.6 163.9,11 164,11.2 C164.1,11.4 164.2,11.5 164.4,11.6 C164.6,11.7 164.8,11.7 165.2,11.7 L165.2,12.1 C165,12.1 164.8,12.1 164.4,12.1 C164.1,12.1 163.9,12.1 163.9,12.1 C163.9,12.1 163.7,12.1 163.3,12.1 C163,12.1 162.6,12.1 162.2,12.1 C161.8,12.1 161.5,12.1 161.4,12.1 L161.4,11.7 C161.7,11.7 161.9,11.7 162.1,11.6 C162.3,11.5 162.4,11.4 162.4,11.2 C162.5,11 162.5,10.6 162.5,10 C162.5,9.4 162.5,8.1 162.5,6.1 L162.5,5.9 C162.5,4.4 162.5,3.4 162.5,2.9 C162.5,2.4 162.5,2.1 162.4,1.9 C162.3,1.7 162.2,1.6 162.1,1.5 C161.9,1.4 161.7,1.4 161.3,1.4 L161.3,0.9 C161.4,0.9 161.7,0.9 162.2,0.9 C162.6,0.9 163,0.9 163.3,0.9 C163.6,0.9 164,0.9 164.4,0.9 C164.9,0.9 165.2,0.9 165.5,0.9 C166.2,0.9 166.8,1 167.3,1.2 C167.8,1.4 168.3,1.7 168.6,2.1 C168.9,2.5 169.1,3 169.1,3.6 C169.1,4.1 169,4.5 168.8,4.9 C168.6,5.3 168.4,5.6 168.1,5.8 C167.8,6 167.6,6.2 167.4,6.3 C167.2,6.4 167,6.5 166.8,6.6 C166.9,6.8 167.1,7.1 167.3,7.3 C167.5,7.6 167.7,7.9 167.9,8.2 C168.1,8.5 168.2,8.7 168.3,8.7 C168.5,9 168.8,9.3 169,9.7 C169.3,10.1 169.5,10.4 169.7,10.6 C169.9,10.8 170,11 170.1,11.1 C170.5,11.4 170.8,11.5 171.2,11.5 L171.2,12.2 L171.1,12.2 Z M167.4,4.2 C167.4,2.6 166.6,1.8 165,1.8 C164.8,1.8 164.5,1.8 164.3,1.8 C164.1,1.8 163.9,1.8 163.8,1.8 L163.8,6.7 C164.3,6.7 164.6,6.8 164.9,6.8 C165.7,6.8 166.3,6.6 166.7,6.1 C167.2,5.7 167.4,5 167.4,4.2 Z" id="Shape" fill-rule="nonzero"></path>
            <path d="M179.7,9.1 C179.7,9.5 179.6,9.9 179.5,10.2 C179.3,10.6 179.1,10.9 178.8,11.2 C178.5,11.5 178.1,11.7 177.6,11.9 C177.1,12.1 176.5,12.2 175.8,12.2 C175.5,12.2 175.1,12.2 174.8,12.1 C174.5,12 174.1,12 173.7,11.9 C173.3,11.8 173.1,11.8 173,11.7 C173,11.6 173,11.6 173,11.5 C173,11.4 173,11.3 173,11.2 C173,11 173,10.7 173,10.3 C173,9.9 173,9.6 173,9.3 L173.5,9.3 C173.5,9.8 173.6,10.2 173.8,10.6 C174,10.9 174.3,11.2 174.6,11.4 C175,11.6 175.4,11.6 175.9,11.6 C176.8,11.6 177.4,11.4 177.8,11 C178.2,10.6 178.3,10.2 178.3,9.6 C178.3,9.3 178.2,9 178.1,8.8 C177.9,8.6 177.7,8.3 177.3,8 C177,7.7 176.4,7.4 175.8,6.9 C175.3,6.6 175,6.3 174.7,6.1 C174.5,5.9 174.2,5.7 174,5.4 C173.8,5.1 173.6,4.9 173.5,4.6 C173.4,4.3 173.3,4 173.3,3.6 C173.3,2.9 173.6,2.3 174.1,1.7 C174.7,1.1 175.5,0.9 176.7,0.9 C177,0.9 177.4,0.9 177.7,0.9 C178.1,0.9 178.3,0.9 178.4,0.9 C178.5,0.9 178.6,0.9 178.8,0.9 L178.9,0.9 C178.9,1 178.9,1.1 178.9,1.2 C178.9,1.3 178.9,1.4 178.9,1.6 C178.9,1.7 178.9,1.9 178.9,2 C178.9,2.1 178.9,2.3 178.9,2.7 C178.9,3 178.9,3.2 178.9,3.3 L178.4,3.3 C178.4,2.7 178.2,2.2 177.9,1.9 C177.6,1.6 177.1,1.5 176.5,1.5 C175.8,1.5 175.3,1.7 175,2 C174.7,2.3 174.5,2.7 174.5,3.2 C174.5,3.5 174.6,3.8 174.7,4.1 C174.8,4.3 175,4.6 175.2,4.8 C175.4,5 175.7,5.2 176.1,5.5 C176.5,5.8 176.7,5.9 176.7,5.9 C177.6,6.5 178.3,7.1 178.7,7.5 C179.5,8 179.7,8.6 179.7,9.1 Z" id="Path"></path>
            <path d="M186.9,12.2 C186.6,12.2 186.2,12.2 185.9,12.2 C185.5,12.2 185.2,12.2 185,12.2 C184.9,12.2 184.6,12.2 184.2,12.2 C183.8,12.2 183.5,12.2 183.1,12.2 L183.1,11.8 C183.4,11.8 183.6,11.8 183.8,11.7 C184,11.6 184.1,11.5 184.2,11.3 C184.2,11.2 184.3,11 184.3,10.7 C184.3,10.4 184.3,10 184.3,9.4 C184.3,8.8 184.3,7.7 184.3,6.2 L184.3,6 C184.3,4.5 184.3,3.5 184.3,3 C184.3,2.5 184.3,2.2 184.2,2 C184.1,1.8 184,1.7 183.8,1.6 C183.6,1.5 183.4,1.5 183.1,1.5 L183.1,1.1 C183.4,1.1 183.7,1.1 184.1,1.1 C184.5,1.1 184.8,1.1 185.1,1.1 C185.2,1.1 185.5,1.1 185.9,1.1 C186.3,1.1 186.6,1.1 187,1.1 L187,1.5 C186.7,1.5 186.5,1.5 186.3,1.6 C186.1,1.7 186,1.8 186,1.9 C185.9,2.1 185.9,2.4 185.9,3.1 C185.9,3.7 185.9,4.7 185.9,6.1 L185.9,6.2 C185.9,7.1 185.9,8 185.9,8.8 C185.9,9.6 185.9,10.2 185.9,10.5 C185.9,10.8 185.9,11 186,11.1 C186.1,11.3 186.2,11.5 186.4,11.5 C186.6,11.6 186.8,11.6 187.1,11.6 L187.1,12.2 L186.9,12.2 Z" id="Path"></path>
            <path d="M199.2,3.5 L198.7,3.5 C198.7,3.1 198.7,2.7 198.6,2.5 C198.5,2.3 198.4,2.1 198.2,2.1 C198,2 197.7,2 197.3,2 L195.5,2 L195.5,6.2 C195.5,9.4 195.5,11.1 195.6,11.3 C195.7,11.5 195.8,11.6 195.9,11.7 C196.1,11.8 196.3,11.8 196.6,11.8 L196.6,12.2 C196.4,12.2 196.2,12.2 195.8,12.2 C195.4,12.2 195.1,12.2 194.8,12.2 C194.6,12.2 194.3,12.2 193.8,12.2 C193.3,12.2 193,12.2 192.8,12.2 L192.8,11.8 C193.1,11.8 193.4,11.8 193.5,11.7 C193.6,11.6 193.8,11.5 193.8,11.3 C193.8,11.2 193.9,10.9 193.9,10.5 C193.9,10.1 193.9,9.5 193.9,8.9 C193.9,8.3 193.9,7.4 193.9,6.2 C193.9,4.3 193.9,2.8 193.9,1.9 L192.1,1.9 C191.7,1.9 191.3,1.9 191.1,2 C190.9,2.1 190.7,2.2 190.7,2.5 C190.6,2.7 190.6,3 190.6,3.4 L190.1,3.4 C190.1,3.3 190.1,3.1 190.1,2.7 C190.1,2.4 190.1,2.1 190.1,2 C190.1,1.6 190.1,1.3 190.1,1.1 C190.4,1.1 190.9,1.1 191.8,1.1 C192.7,1.1 193.5,1.1 194.4,1.1 C195.1,1.1 196.1,1.1 197.2,1.1 C198.3,1.1 199,1.1 199.2,1.1 C199.2,1.4 199.2,1.7 199.2,2 C199.2,2.3 199.2,2.5 199.2,2.8 C199.2,3.2 199.2,3.4 199.2,3.5 Z" id="Path"></path>
            <path d="M211.6,1.6 C211.1,1.6 210.8,1.7 210.5,2 C210.2,2.3 209.6,3 208.8,4.3 C208.7,4.5 208.5,4.7 208.4,4.9 C208.2,5.2 208,5.5 207.8,5.8 C207.6,6.2 207.4,6.5 207.2,6.7 L207.2,6.9 C207.2,7.7 207.2,8.4 207.2,9.1 C207.2,9.8 207.2,10.3 207.2,10.6 C207.2,10.9 207.2,11.1 207.3,11.2 C207.4,11.4 207.5,11.6 207.6,11.6 C207.8,11.7 208,11.7 208.2,11.7 L208.3,11.7 L208.3,12.1 C208.2,12.1 207.9,12.1 207.5,12.1 C207.1,12.1 206.7,12.1 206.4,12.1 C206.2,12.1 205.9,12.1 205.5,12.1 C205.1,12.1 204.9,12.1 204.8,12.1 L204.6,12.1 L204.6,11.7 C204.9,11.7 205.2,11.7 205.3,11.6 C205.5,11.5 205.6,11.4 205.6,11.2 C205.7,10.9 205.7,10.4 205.7,9.7 L205.7,7.9 L205.7,7 C205.7,6.9 205.5,6.7 205.3,6.4 C205.1,6 204.7,5.3 204.1,4.3 C203.5,3.3 203.1,2.6 202.7,2.1 C202.6,2 202.5,1.9 202.4,1.8 C202.3,1.7 202.1,1.6 202,1.6 C201.9,1.6 201.7,1.5 201.6,1.5 L201.6,1.1 C201.8,1.1 201.9,1.1 202.1,1.1 C202.3,1.1 202.5,1.1 202.7,1.1 C202.9,1.1 203.1,1.1 203.3,1.1 C203.5,1.1 203.7,1.1 204,1.1 C204.3,1.1 204.6,1.1 204.9,1.1 C205.2,1.1 205.4,1.1 205.6,1.1 L205.6,1.5 C205.3,1.5 205,1.5 204.9,1.6 C204.8,1.6 204.7,1.7 204.7,1.9 C204.7,2.1 204.8,2.3 204.9,2.6 C205,2.9 205.3,3.3 205.7,4 C205.7,4.1 205.9,4.4 206.2,4.9 C206.5,5.4 206.8,5.9 206.9,6.1 C207.1,5.8 207.3,5.6 207.4,5.4 C207.5,5.2 207.6,5.1 207.7,5 C207.8,4.9 207.9,4.8 207.9,4.6 C208,4.5 208.1,4.3 208.2,4.1 C208.5,3.6 208.7,3.2 208.9,2.9 C209.1,2.6 209.2,2.3 209.2,2.1 C209.2,1.7 208.9,1.5 208.2,1.5 L208.2,1.1 C208.4,1.1 208.5,1.1 208.6,1.1 C208.7,1.1 208.9,1.1 209,1.1 C209.1,1.1 209.3,1.1 209.4,1.1 C209.6,1.1 209.8,1.1 210.1,1.1 C210.3,1.1 210.6,1.1 210.9,1.1 C211.2,1.1 211.5,1.1 211.6,1.1 L211.6,1.6 Z" id="Path"></path>
        </g>
        <g id="Group" transform="translate(1.000000, 83.000000)" fill="#9FA1A1">
            <rect id="Rectangle" x="0.1" y="3.2" width="99.1" height="1"></rect>
            <path d="M116.1,7 L115.6,5.3 L113.1,5.3 L112.6,7 L111,7 L113.5,0 L115.3,0 L117.8,7 L116.1,7 Z M115.3,4 C114.8,2.5 114.6,1.6 114.5,1.4 C114.4,1.2 114.4,1 114.4,0.9 C114.3,1.3 114,2.3 113.5,3.9 L115.3,3.9 L115.3,4 Z" id="Shape"></path>
            <polygon id="Path" points="121.6 7 120.2 7 120.2 1.2 118.3 1.2 118.3 0 123.5 0 123.5 1.2 121.6 1.2"></polygon>
            <rect id="Rectangle" x="135.3" y="3.2" width="99.2" height="1"></rect>
        </g>
    </g>
</svg>