<svg xmlns="http://www.w3.org/2000/svg" style="display: none;"><symbol id="icon-star" viewBox="0 0 30 30"><g class="nc-icon-wrapper" fill="currentColor"><defs/><title>_Harmony Assets</title><path class="cls-1" d="M10.41 10.19L0 11.63l7.58 7.29-1.85 10.35L15 24.31l9.27 4.96-1.85-10.35L30 11.63l-10.42-1.44L15 .73l-4.59 9.46z" style="" fill="currentColor"/></g></symbol><symbol id="icon-trophy" viewBox="0 0 150 150"><g class="nc-icon-wrapper" fill="currentColor"><defs/><title>_Harmony Assets</title><path class="cls-1" d="M149.49 28.93c-.14-12.65-6.62-19.62-18.22-19.62a41 41 0 0 0-11.65 1.92c.29-5.17.29-8.36.29-8.52V.5H30.09v2.21c0 .08 0 3.32.29 8.53a40.58 40.58 0 0 0-11.65-1.93C7.13 9.31.65 16.28.51 28.93.36 41.37 3.2 52.45 8.94 61.85a53.29 53.29 0 0 0 17.89 17.83 41.84 41.84 0 0 0 21.54 5.89c1.32 0 2.59-.06 3.78-.18h.23a34.17 34.17 0 0 0 8.37 6.69A8.73 8.73 0 0 1 65 97.86a7.29 7.29 0 0 0 .2 14v9.28h-12v9.69H41.42v18.67h67.16v-18.68H96.77v-9.69h-12v-9.28a7.29 7.29 0 0 0 .2-14 8.73 8.73 0 0 1 4.26-5.81 34.22 34.22 0 0 0 8.37-6.69 37.12 37.12 0 0 0 4 .21 41.84 41.84 0 0 0 21.54-5.89 53.29 53.29 0 0 0 17.89-17.83c5.77-9.39 8.61-20.47 8.46-32.91zm-34-24c0 .81 0 1.82-.1 3H34.66c0-1.19-.08-2.21-.1-3zm3 20.31a35.09 35.09 0 0 1 10.36-2c2.92 0 5 .71 6.25 2.12 1.41 1.62 1.86 4.33 1.35 8.07-2.14 15.58-8.9 27.74-19 34.24a24 24 0 0 1-10.51 3.53c6.68-14.15 9.94-31.91 11.52-45.96zM33.82 40.66C36 52.33 39 62.36 42.75 70.46l.35.74a23.91 23.91 0 0 1-10.5-3.53c-10.12-6.5-16.88-18.66-19-34.24-.51-3.74-.06-6.45 1.35-8.07 1.23-1.41 3.33-2.12 6.25-2.12a34.85 34.85 0 0 1 10.37 2c.52 4.76 1.25 10.04 2.25 15.42zm14.55 40.49a37.49 37.49 0 0 1-19.26-5.26C21.73 71.44 4.59 58 4.93 29c.12-10.25 4.63-15.24 13.8-15.24a38.26 38.26 0 0 1 12 2.26c.11 1.48.24 3 .37 4.45a36.42 36.42 0 0 0-9.87-1.64c-4.26 0-7.48 1.23-9.58 3.64C9.31 25.07 8.5 29 9.2 34a62.31 62.31 0 0 0 7.4 22.79A42 42 0 0 0 30.21 71.4a29.44 29.44 0 0 0 15.27 4.38l.05.08c.22.39.45.78.68 1.17l.22.36c.22.36.44.72.67 1.07l.25.39.46.7.45.66.45.63.21.3zm55.79 54.1v9.82H45.85v-9.82h58.31zm-19.37-9.69h7.55v5.26H57.66v-5.26h27.13zm-15.16-4.43v-9h10.74v9zm16.07-16.3a2.87 2.87 0 0 1-2.87 2.86H67.17a2.87 2.87 0 0 1 0-5.73h15.66a2.88 2.88 0 0 1 2.87 2.87zm11.07-25.3l-.08.09-.66.83-.16.2c-.24.29-.48.58-.73.86a30.44 30.44 0 0 1-8 6.63 13.17 13.17 0 0 0-6.55 9.35H69.45a13.17 13.17 0 0 0-6.55-9.35 30.11 30.11 0 0 1-7.46-6l-.54-.62a49.7 49.7 0 0 1-6.17-9l-.58-1.07c-9.51-18.39-12.39-45-13.26-59.08h80.24c0 .61-.08 1.25-.13 1.91v.09c0 .71-.1 1.43-.16 2.14v.07c-.18 2.27-.39 4.55-.63 6.8l-.14 1.36c-1.61 14.41-5 32.78-12.17 46.61l-.63 1.17a54.58 54.58 0 0 1-4.5 7.01zm24.12-3.64a37.49 37.49 0 0 1-19.26 5.26h-.54c.29-.4.57-.8.85-1.21l.1-.15c.24-.34.47-.7.7-1a2.61 2.61 0 0 0 .17-.28c.26-.39.51-.8.76-1.2a2 2 0 0 1 .11-.2l.6-1c0-.08.09-.15.14-.24a29.44 29.44 0 0 0 15.27-4.38 42 42 0 0 0 13.61-14.67A62.31 62.31 0 0 0 140.8 34c.7-5.06-.11-9-2.39-11.58-2.11-2.41-5.33-3.64-9.59-3.64a36.42 36.42 0 0 0-9.82 1.67c.14-1.51.26-3 .36-4.34V16a38.26 38.26 0 0 1 12-2.26c9.17 0 13.68 5 13.8 15.24.25 29.02-16.89 42.46-24.27 46.91z" style="" fill="currentColor"/><path class="cls-1" d="M56.48 72.16l-3.7 2.43a39.49 39.49 0 0 0 4 5.18l3.24-3a35.93 35.93 0 0 1-3.54-4.61z" style="" fill="currentColor"/><path class="cls-1" d="M47 47.62l-4.31 1c2.12 9.31 4.95 17.12 8.42 23.22l3.84-2.19C51.68 63.91 49 56.5 47 47.62z" style="" fill="currentColor"/><path class="cls-1" d="M129.61 97.56v-4.43l-3.73.01-.01-3.74h-4.42v3.74h-3.74l.01 4.43 3.73-.01v3.74h4.43v-3.74h3.73z" style="" fill="currentColor"/><path class="cls-1" d="M33.32 120.54v-4.43l-3.14.01v-3.14l-4.43.01.01 3.13-3.14.01.01 4.42h3.13l.01 3.13h4.42v-3.14h3.13z" style="" fill="currentColor"/><path class="cls-1" d="M14.71 84.36h4.17v4.43h-4.17z" style="" fill="currentColor"/><path class="cls-1" d="M41.54 97.45h4.17v4.43h-4.17z" style="" fill="currentColor"/><path class="cls-1" d="M108.83 110.77H113v4.43h-4.17z" style="" fill="currentColor"/></g></symbol><symbol id="icon-presentation" viewBox="0 0 150 150"><g class="nc-icon-wrapper" fill="currentColor"><defs/><title>_Harmony Assets</title><path class="cls-1" d="M70.68 88.81h61.66a2.91 2.91 0 0 0 0-5.82H70.68a2.91 2.91 0 0 0 0 5.82" style="" fill="currentColor"/><path class="cls-1" d="M70.68 76.47h61.66a2.91 2.91 0 1 0 0-5.82H70.68a2.91 2.91 0 0 0 0 5.82" style="" fill="currentColor"/><path class="cls-1" d="M100.33 63.44h32a2.91 2.91 0 0 0 0-5.82h-32a2.91 2.91 0 1 0 0 5.82" style="" fill="currentColor"/><path class="cls-1" d="M56.42 70.31a2.91 2.91 0 1 1-2.91 2.91 2.91 2.91 0 0 1 2.91-2.91" style="" fill="currentColor"/><path class="cls-1" d="M143.68 101.38a2.86 2.86 0 0 1-2.85 2.85H62.18a2.85 2.85 0 0 1-2.84-2.85v-17a2.92 2.92 0 0 0-5.83 0v17a8.68 8.68 0 0 0 8.67 8.67h29.13L83 134.9H41.75V64.68h29.67a15.15 15.15 0 0 0 15.13-15.13 2.92 2.92 0 0 0-2.91-2.91h-24.3V32a2.85 2.85 0 0 1 2.84-2.85h78.65a2.86 2.86 0 0 1 2.85 2.85zm-27.84 33.52H89.12l8.33-24.85h10zM35.93 61.77v73.13h-6.05v-32.72a2.91 2.91 0 1 0-5.82 0v32.72H18V73a2.91 2.91 0 1 0-5.82 0v27.77a7.08 7.08 0 0 1-5.86-6.85v-21.7c0-10.89 9.18-19.75 20.46-19.75h53.48a9.32 9.32 0 0 1-8.84 6.39H38.84a2.91 2.91 0 0 0-2.91 2.91M26.07 30.7a8 8 0 1 1-8 8 8 8 0 0 1 8-8m75.44-15.6a11.14 11.14 0 0 1 10.74 8.22H90.77a11.14 11.14 0 0 1 10.74-8.22m39.32 8.22H118.2a16.94 16.94 0 0 0-33.38 0H62.18A8.68 8.68 0 0 0 53.51 32v14.64H37.32a13.79 13.79 0 1 0-20.75 2A25.63 25.63 0 0 0 .5 72.22v21.67a12.94 12.94 0 0 0 11.68 12.73v28.28H4.9a2.91 2.91 0 1 0 0 5.82h138.94a2.91 2.91 0 1 0 0-5.82H122l-8.34-24.85h27.19a8.68 8.68 0 0 0 8.67-8.67V32a8.68 8.68 0 0 0-8.67-8.67" style="" fill="currentColor"/></g></symbol><symbol id="icon-book" viewBox="0 0 150 150"><g class="nc-icon-wrapper" fill="currentColor"><defs/><title>_Harmony Assets</title><path class="cls-1" d="M85.2 71.16a2.48 2.48 0 0 0 3.34 1.09c.15-.08 14.77-7.5 22-9.78a2.49 2.49 0 0 0-1.5-4.74c-7.6 2.4-22.12 9.78-22.73 10.09a2.49 2.49 0 0 0-1.11 3.34z" style="" fill="currentColor"/><path class="cls-1" d="M87.42 42.72a2.5 2.5 0 0 0 1.12-.27c.15-.08 14.77-7.5 22-9.78a2.49 2.49 0 0 0-1.5-4.74c-7.6 2.4-22.12 9.78-22.73 10.09a2.48 2.48 0 0 0 1.13 4.7z" style="" fill="currentColor"/><path class="cls-1" d="M147 37.75a2.48 2.48 0 0 0-2.49 2.48v96.85a7.46 7.46 0 0 1-7.45 7.45H77.48v-5.71c3.62-1.27 13.06-4.22 22.35-4.22 21.64 0 36.32 4.79 36.47 4.84a2.48 2.48 0 0 0 3.27-2.36V27.82a2.48 2.48 0 0 0-1.95-2.43s-2-.43-5.27-1a2.48 2.48 0 0 0-.9 4.88c1.27.24 2.33.44 3.15.61v103.9a140.5 140.5 0 0 0-34.77-4.15c-10.82 0-21.45 3.56-24.73 4.76a58.24 58.24 0 0 0-22.45-4.76 166.74 166.74 0 0 0-37.25 4.26V29.74a163.38 163.38 0 0 1 37.25-4.41 53.74 53.74 0 0 1 19.87 4.1v97.72a2.48 2.48 0 0 0 3.76 2.13c.24-.15 24.85-14.84 46.69-22.12a2.5 2.5 0 0 0 1.7-2.36V3a2.48 2.48 0 0 0-3.36-2.34c-19.87 7.45-40 20-40.18 20.09A2.48 2.48 0 1 0 83.77 25 264.24 264.24 0 0 1 119.7 6.62V103c-17 5.89-34.65 15.51-42.22 19.82v-95a2.48 2.48 0 0 0-1.37-2.22 57.31 57.31 0 0 0-23.46-5.23 161.27 161.27 0 0 0-40.42 5.06 2.49 2.49 0 0 0-1.8 2.39v109.26a2.49 2.49 0 0 0 2.49 2.49 2.66 2.66 0 0 0 .68-.1 159.29 159.29 0 0 1 39.05-4.87 54 54 0 0 1 19.87 4.09v5.84h-59.6a7.46 7.46 0 0 1-7.45-7.45V40.23a2.49 2.49 0 0 0-5 0v96.85a12.43 12.43 0 0 0 12.45 12.42h124.16a12.43 12.43 0 0 0 12.42-12.42V40.23a2.48 2.48 0 0 0-2.5-2.48z" style="" fill="currentColor"/><path class="cls-1" d="M85.2 56.26a2.48 2.48 0 0 0 3.34 1.09c.15-.08 14.77-7.5 22-9.78a2.49 2.49 0 0 0-1.5-4.74c-7.6 2.4-22.12 9.78-22.73 10.09a2.49 2.49 0 0 0-1.11 3.34z" style="" fill="currentColor"/><path class="cls-1" d="M85.2 86.06a2.48 2.48 0 0 0 3.34 1.09c.15-.08 14.77-7.5 22-9.78a2.49 2.49 0 0 0-1.5-4.74c-7.6 2.4-22.12 9.78-22.73 10.09a2.49 2.49 0 0 0-1.11 3.34z" style="" fill="currentColor"/><path class="cls-1" d="M60.67 46.59c-15.34-3.6-32.76 1-33.5 1.18a2.48 2.48 0 0 0 .64 4.88 2.89 2.89 0 0 0 .65-.08c.17 0 16.94-4.46 31.07-1.15a2.48 2.48 0 1 0 1.14-4.83z" style="" fill="currentColor"/><path class="cls-1" d="M60.67 61.49c-15.34-3.6-32.76 1-33.5 1.18a2.48 2.48 0 0 0 .64 4.88 2.89 2.89 0 0 0 .65-.08c.17 0 16.94-4.46 31.07-1.15a2.48 2.48 0 1 0 1.14-4.83z" style="" fill="currentColor"/><path class="cls-1" d="M85.2 101a2.48 2.48 0 0 0 3.34 1.09c.15-.08 14.77-7.5 22-9.78a2.49 2.49 0 0 0-1.5-4.74c-7.6 2.4-22.12 9.78-22.73 10.09A2.49 2.49 0 0 0 85.2 101z" style="" fill="currentColor"/><path class="cls-1" d="M60.67 76.39c-15.34-3.6-32.76 1-33.5 1.18a2.48 2.48 0 0 0 .64 4.88 2.89 2.89 0 0 0 .65-.08c.17-.05 16.94-4.46 31.07-1.15a2.48 2.48 0 1 0 1.14-4.83z" style="" fill="currentColor"/><path class="cls-1" d="M60.67 106.19c-15.34-3.6-32.76 1-33.5 1.18a2.48 2.48 0 0 0 .64 4.88 2.89 2.89 0 0 0 .65-.08c.17 0 16.94-4.46 31.07-1.15a2.48 2.48 0 1 0 1.14-4.83z" style="" fill="currentColor"/><path class="cls-1" d="M60.67 91.29c-15.34-3.6-32.76 1-33.5 1.18a2.48 2.48 0 0 0 .64 4.88 2.89 2.89 0 0 0 .65-.08c.17 0 16.94-4.46 31.07-1.15a2.48 2.48 0 1 0 1.14-4.83z" style="" fill="currentColor"/></g></symbol><symbol id="icon-hands" viewBox="0 0 150 150"><g class="nc-icon-wrapper" fill="currentColor"><defs/><title>_Harmony Assets</title><path class="cls-1" d="M115.87 144.26l-15.63-15.63a3 3 0 0 0-2.06-.85h-8.44a39.06 39.06 0 0 1-13.61-2.47l5-3.38a9.15 9.15 0 0 0-5.11-16.75h-.14L87.5 93.6a9 9 0 0 0-2.94-14.72 9 9 0 0 0-7.79-13.58 8.92 8.92 0 0 0-4.56 1.24 9 9 0 0 0-14.72-2.94l-4.16 4.16a9 9 0 0 0-14.6-2.66L36.89 67l-7.5-7.46a5.59 5.59 0 0 1 7.47-8.29l7.27 7.27a2.91 2.91 0 0 0 4.11-4.12L35.71 41.82a5.59 5.59 0 0 1 7.9-7.9l22 22a2.91 2.91 0 0 0 4.11-4.11L53 35.07a5.58 5.58 0 0 1 8.28-7.47l6.12 6.11a2.91 2.91 0 1 0 4.11-4.11l-6.11-6.12a11.4 11.4 0 0 0-19.08 5.12A11.41 11.41 0 0 0 30.4 44.53a11.25 11.25 0 0 0-5.13 2.94 11.43 11.43 0 0 0-.7 15.36 11.4 11.4 0 0 0-5 19l1.29 1.3a32.61 32.61 0 0 0-7.56 21V109L1.35 121a2.91 2.91 0 1 0 4.12 4.11l12.79-12.79a2.92 2.92 0 0 0 .86-2.06v-6A26.84 26.84 0 0 1 27 85.05l14.46-14.44 1.39-1.39a3.2 3.2 0 0 1 4.76 4.26l-3.85 3.84a2.93 2.93 0 0 0 0 4.12 2.9 2.9 0 0 0 4.12 0l13.73-13.73a3.21 3.21 0 0 1 4.52 0 3.21 3.21 0 0 1 .24 4.29l-14 14a2.91 2.91 0 0 0 2.06 5 2.89 2.89 0 0 0 2.06-.85l18-18a3.19 3.19 0 0 1 4.52 0 3.19 3.19 0 0 1 0 4.52l-18 18a2.91 2.91 0 1 0 4.12 4.12l14-14a3.2 3.2 0 0 1 4.25 4.77l-19.65 19.57a3.81 3.81 0 0 0 4.67 6l5.94-3.6a3.33 3.33 0 0 1 5 3.46 3.28 3.28 0 0 1-1.42 2.16l-13.73 9.21a27 27 0 0 1-15 4.58h-9.33a2.92 2.92 0 0 0-2.06.86L25 144.59a2.91 2.91 0 0 0 4 4.06l12-11.94h8.17a32.76 32.76 0 0 0 18.29-5.57l2.94-2a44.81 44.81 0 0 0 19.37 4.43H97l14.77 14.78a2.91 2.91 0 0 0 4.12-4.12zM30.87 73l-6 6-1.2-1.2a5.59 5.59 0 0 1 7.47-8.29l1.61 1.61z" style="" fill="currentColor"/><path class="cls-1" d="M148.65 111.49a2.92 2.92 0 0 0-4.12 0 2.91 2.91 0 1 0 4.12 0z" style="" fill="currentColor"/><path class="cls-1" d="M140.82 103.66l-6.95-7V84.89a44.4 44.4 0 0 0-7.55-24.87L113.53 41a11.59 11.59 0 0 0-16.28-3 11.63 11.63 0 0 0-4.4 13l-7.61-7.61a2.91 2.91 0 0 0-4.11 4.12l16.33 16.27a4.17 4.17 0 0 0 6.51-5.1l-5-8.26a5.78 5.78 0 0 1 9.74-6.21l12.8 19.1a38.58 38.58 0 0 1 6.57 21.63v13a2.89 2.89 0 0 0 .85 2.06l7.81 7.81a2.91 2.91 0 0 0 4.11 0 2.91 2.91 0 0 0-.03-4.15z" style="" fill="currentColor"/><path class="cls-1" d="M78.4 36.48a2.93 2.93 0 0 0-2.06-.85 3 3 0 0 0-2.06.85 2.92 2.92 0 0 0 0 4.12 3 3 0 0 0 2.06.85 2.91 2.91 0 0 0 2.06-5z" style="" fill="currentColor"/><path class="cls-1" d="M105.41 81.64a2.91 2.91 0 0 0-4.12-4.11L100 78.8a14 14 0 0 0 0 19.71 2.92 2.92 0 0 0 4.12 0 2.93 2.93 0 0 0 0-4.12 8.12 8.12 0 0 1 0-11.48z" style="" fill="currentColor"/><path class="cls-1" d="M139.4 16.22a10 10 0 0 0-5.22 1.48 10 10 0 0 0-5.18-1.48 10.2 10.2 0 0 0-10.1 10.28c0 3.21 2.31 7.07 7.06 11.8a74.09 74.09 0 0 0 6.49 5.7 2.91 2.91 0 0 0 3.55 0 74.09 74.09 0 0 0 6.49-5.7c4.75-4.73 7.06-8.59 7.06-11.8a10.2 10.2 0 0 0-10.15-10.28zM134.18 38c-4.86-4-9.5-9.2-9.5-11.47A4.38 4.38 0 0 1 129 22a4.13 4.13 0 0 1 3 1.41 2.93 2.93 0 0 0 4.28 0A4.13 4.13 0 0 1 139.4 22a4.38 4.38 0 0 1 4.28 4.46c0 2.31-4.68 7.46-9.5 11.54z" style="" fill="currentColor"/><path class="cls-1" d="M21 .5A10 10 0 0 0 15.82 2 10 10 0 0 0 10.6.5 10.2 10.2 0 0 0 .5 10.78c0 3.22 2.31 7.08 7.06 11.8a75.21 75.21 0 0 0 6.49 5.71 2.91 2.91 0 0 0 3.54 0 75.21 75.21 0 0 0 6.49-5.71c4.75-4.72 7.06-8.58 7.06-11.8A10.2 10.2 0 0 0 21 .5zm-5.18 21.75c-4.86-4-9.5-9.19-9.5-11.47a4.38 4.38 0 0 1 4.28-4.46 4.16 4.16 0 0 1 3.08 1.37 2.91 2.91 0 0 0 4.28 0A4.16 4.16 0 0 1 21 6.32a4.38 4.38 0 0 1 4.28 4.46c.04 2.27-4.6 7.43-9.46 11.47z" style="" fill="currentColor"/></g></symbol><symbol id="icon-diversity" viewBox="0 0 150 150"><g class="nc-icon-wrapper" fill="currentColor"><defs/><title>_Harmony Assets</title><path class="cls-1" d="M142.33 64.77a12.42 12.42 0 1 0-15.46 0 15 15 0 0 0-4 3.52l-12.15 12.17a7.39 7.39 0 0 0-10.34-1.52 7.23 7.23 0 0 0-1.85 2L83.89 70.49c-.37-.28-.75-.53-1.15-.78a12.45 12.45 0 1 0-15.46 0c-.4.25-.78.5-1.15.78L51.47 81a7.39 7.39 0 0 0-10.19-2.34 7.51 7.51 0 0 0-2 1.85L27.11 68.29a15 15 0 0 0-4-3.52 12.42 12.42 0 1 0-15.46 0A14.87 14.87 0 0 0 .5 77.48v22.35a2.48 2.48 0 0 0 2.5 2.48h24.82a2.48 2.48 0 0 0 2.48-2.48V78.51l7.57 7.56a7.42 7.42 0 0 0 14.64.24l7.68-5.49a14.7 14.7 0 0 0-.09 1.63v22.35a2.48 2.48 0 0 0 2.48 2.48h24.84a2.48 2.48 0 0 0 2.48-2.48V82.45a14.7 14.7 0 0 0-.09-1.63l7.68 5.49a7.42 7.42 0 0 0 14.64-.24l7.57-7.56v21.32a2.48 2.48 0 0 0 2.48 2.48H147a2.48 2.48 0 0 0 2.48-2.48V77.48a14.87 14.87 0 0 0-7.15-12.71zM15.4 47.68A7.45 7.45 0 1 1 8 55.13a7.45 7.45 0 0 1 7.4-7.45zm9.93 49.67H5.47V77.48a9.93 9.93 0 1 1 19.86 0zm19.87-9.94a2.48 2.48 0 1 1 2.48-2.48 2.48 2.48 0 0 1-2.48 2.48zM75 52.65a7.45 7.45 0 1 1-7.45 7.45A7.45 7.45 0 0 1 75 52.65zm9.93 49.66H65.07V82.45a9.93 9.93 0 1 1 19.86 0zm19.87-14.9a2.48 2.48 0 1 1 2.48-2.48 2.48 2.48 0 0 1-2.48 2.48zm29.8-39.73a7.45 7.45 0 1 1-7.45 7.45 7.46 7.46 0 0 1 7.45-7.45zm9.93 49.67h-19.86V77.48a9.93 9.93 0 0 1 19.86 0z" style="" fill="currentColor"/><path class="cls-1" d="M85.84 20.06a7.45 7.45 0 0 0-10.54 0A7.45 7.45 0 0 0 64.77 30.6l8.77 8.78a2.49 2.49 0 0 0 3.52 0l8.78-8.78a7.45 7.45 0 0 0 0-10.54zm-3.51 7l-7 7-7-7a2.48 2.48 0 0 1 3.51-3.51l1.75 1.75a2.49 2.49 0 0 0 3.52 0l1.75-1.75a2.49 2.49 0 0 1 3.52 3.51z" style="" fill="currentColor"/><path class="cls-1" d="M147.39 2.72a7.35 7.35 0 0 0-10.31-.08 7.34 7.34 0 0 0-10.31.08 7.66 7.66 0 0 0 0 10.52l8.53 8.85a2.48 2.48 0 0 0 3.5.06l.07-.06 8.52-8.85a7.64 7.64 0 0 0 0-10.52zm-3.57 7.08l-6.74 7-6.73-7a2.65 2.65 0 0 1 0-3.63 2.21 2.21 0 0 1 3.13-.11 1.14 1.14 0 0 1 .11.11l1.71 1.77a2.55 2.55 0 0 0 3.57 0l1.7-1.77a2.27 2.27 0 0 1 3.21 0 2.64 2.64 0 0 1 .04 3.63z" style="" fill="currentColor"/><path class="cls-1" d="M23.23 2.72a7.35 7.35 0 0 0-10.31-.08 7.34 7.34 0 0 0-10.31.08 7.64 7.64 0 0 0 0 10.52l8.52 8.85a2.49 2.49 0 0 0 3.51.06l.06-.06 8.53-8.85a7.66 7.66 0 0 0 0-10.52zM19.65 9.8l-6.73 7-6.74-7a2.57 2.57 0 0 1 0-3.63 2.23 2.23 0 0 1 3.14-.11 1.14 1.14 0 0 0 .11.11l1.7 1.77a2.55 2.55 0 0 0 3.57 0l1.71-1.77a2.26 2.26 0 0 1 3.2 0 2.64 2.64 0 0 1 .04 3.63z" style="" fill="currentColor"/><path class="cls-1" d="M36.44 11.25a74.51 74.51 0 0 0-25.21 25.21L15.48 39a69.56 69.56 0 0 1 119 0l4.25-2.57A74.52 74.52 0 0 0 36.44 11.25z" style="" fill="currentColor"/><path class="cls-1" d="M137.17 106.17a69.56 69.56 0 0 1-124.34 0l-4.44 2.22a74.52 74.52 0 0 0 133.22 0z" style="" fill="currentColor"/></g></symbol><symbol id="icon-tools" viewBox="0 0 150 150"><g class="nc-icon-wrapper" fill="currentColor"><defs/><title>_Harmony Assets</title><path class="cls-1" d="M112.25 27.82a22.35 22.35 0 1 0 22.35 22.35 22.35 22.35 0 0 0-22.35-22.35zm0 39.73a17.39 17.39 0 1 1 17.38-17.38 17.38 17.38 0 0 1-17.38 17.38z" style="" fill="currentColor"/><path class="cls-1" d="M69.09 36.86l-4-3.19v-1.78l4-3.18a2.47 2.47 0 0 0 .91-2.45 32.08 32.08 0 0 0-2.28-6.81 2.51 2.51 0 0 0-2-1.43l-4.91-.45L59.6 16l1.06-4.65A2.51 2.51 0 0 0 59.9 9 33.26 33.26 0 0 0 54 4.73a2.46 2.46 0 0 0-2.45 0l-4.15 2.4c-.66-.23-1.35-.44-2.06-.64L43.41 2A2.48 2.48 0 0 0 41.12.5h-6.74A2.48 2.48 0 0 0 32.09 2l-1.92 4.5c-.71.2-1.4.41-2.06.64L24 4.75a2.48 2.48 0 0 0-2.46 0A32.76 32.76 0 0 0 15.6 9a2.5 2.5 0 0 0-.76 2.41L15.91 16l-1.16 1.56-4.92.44a2.48 2.48 0 0 0-2 1.43 31.37 31.37 0 0 0-2.29 6.81 2.47 2.47 0 0 0 .89 2.45l4 3.18v1.78l-4 3.19a2.47 2.47 0 0 0-.89 2.45 31.56 31.56 0 0 0 2.29 6.81 2.47 2.47 0 0 0 2 1.42l4.92.45 1.15 1.57-1.06 4.65a2.48 2.48 0 0 0 .76 2.4 33.31 33.31 0 0 0 5.91 4.23 2.46 2.46 0 0 0 2.45 0l4.15-2.41c.67.24 1.36.45 2.08.65l1.91 4.33a2.49 2.49 0 0 0 2.28 1.48h6.74a2.49 2.49 0 0 0 2.28-1.48l1.91-4.33c.72-.2 1.41-.41 2.08-.65l4.15 2.41a2.46 2.46 0 0 0 2.45 0 33.26 33.26 0 0 0 5.91-4.22 2.51 2.51 0 0 0 .76-2.41l-1.06-4.63L60.75 48l4.92-.45a2.48 2.48 0 0 0 2-1.43A31.56 31.56 0 0 0 70 39.31a2.47 2.47 0 0 0-.91-2.45zm-5.34 5.87l-4.56.42a2.53 2.53 0 0 0-1.77 1l-2.49 3.38a2.45 2.45 0 0 0-.43 2l1 4.29a27.25 27.25 0 0 1-2.71 1.94l-3.92-2.27a2.47 2.47 0 0 0-2.2-.14A22.4 22.4 0 0 1 43 54.52a2.47 2.47 0 0 0-1.71 1.42l-1.75 4H36l-1.75-4a2.51 2.51 0 0 0-1.72-1.42 22.4 22.4 0 0 1-3.68-1.14 2.47 2.47 0 0 0-2.2.14l-3.92 2.27A27.25 27.25 0 0 1 20 53.85l1-4.29a2.48 2.48 0 0 0-.42-2l-2.5-3.38a2.51 2.51 0 0 0-1.77-1l-4.56-.42a26 26 0 0 1-1-3l3.72-2.94a2.49 2.49 0 0 0 .94-1.94v-4.19a2.48 2.48 0 0 0-.94-1.94l-3.73-2.95a28.05 28.05 0 0 1 1-3l4.56-.41a2.51 2.51 0 0 0 1.77-1L20.58 18a2.48 2.48 0 0 0 .42-2l-1-4.29a29.08 29.08 0 0 1 2.71-2l3.92 2.28a2.5 2.5 0 0 0 2.2.14 23.44 23.44 0 0 1 3.7-1.13 2.47 2.47 0 0 0 1.73-1.4L36 5.47h3.46l1.78 4.13A2.47 2.47 0 0 0 43 11a23.89 23.89 0 0 1 3.69 1.15 2.48 2.48 0 0 0 2.19-.14l3.92-2.27a27.25 27.25 0 0 1 2.71 1.94L54.5 16a2.48 2.48 0 0 0 .42 2l2.5 3.38a2.51 2.51 0 0 0 1.77 1l4.56.42a25.8 25.8 0 0 1 1 3L61 28.75a2.48 2.48 0 0 0-.94 1.94v4.19a2.49 2.49 0 0 0 .94 1.94l3.72 2.94a26 26 0 0 1-.97 2.97z" style="" fill="currentColor"/><path class="cls-1" d="M37.75 15.4a17.39 17.39 0 1 0 17.38 17.38A17.38 17.38 0 0 0 37.75 15.4zm0 29.8a12.42 12.42 0 1 1 12.42-12.42A12.42 12.42 0 0 1 37.75 45.2z" style="" fill="currentColor"/><path class="cls-1" d="M147.5 43.5l-3.86-.77c-.15-.62-.31-1.23-.5-1.85l2.76-2.47a2.48 2.48 0 0 0 .63-2.83 37.45 37.45 0 0 0-4.53-7.81 2.48 2.48 0 0 0-2.76-.86l-3.47 1.14c-.44-.47-.9-.93-1.37-1.37l1.14-3.47a2.48 2.48 0 0 0-.86-2.76 37.09 37.09 0 0 0-7.82-4.56 2.48 2.48 0 0 0-2.82.62l-2.47 2.76c-.62-.18-1.24-.35-1.85-.49l-.77-3.86a2.47 2.47 0 0 0-2.43-2H108a2.48 2.48 0 0 0-2.44 2l-.77 3.86c-.62.14-1.23.31-1.85.5l-2.47-2.77a2.48 2.48 0 0 0-2.82-.62 37.09 37.09 0 0 0-7.82 4.56 2.5 2.5 0 0 0-.83 2.76l1.14 3.47c-.47.44-.93.9-1.37 1.37l-3.47-1.14a2.49 2.49 0 0 0-2.76.86A37.45 37.45 0 0 0 78 35.58a2.48 2.48 0 0 0 .63 2.83l2.76 2.47c-.19.62-.35 1.23-.5 1.85L77 43.5a2.48 2.48 0 0 0-2 2.43v8.47a2.49 2.49 0 0 0 2 2.44l3.86.77c.15.61.31 1.23.5 1.84l-2.76 2.48a2.46 2.46 0 0 0-.6 2.82 37.2 37.2 0 0 0 4.56 7.81 2.49 2.49 0 0 0 2.76.87l3.47-1.14c.44.47.9.92 1.37 1.37L89 77.13a2.47 2.47 0 0 0 .86 2.75 37.13 37.13 0 0 0 7.82 4.57 2.5 2.5 0 0 0 2.82-.63l2.5-2.76c.62.19 1.23.35 1.85.5l.77 3.86a2.48 2.48 0 0 0 2.43 2h8.47a2.49 2.49 0 0 0 2.44-2l.77-3.86c.61-.15 1.23-.31 1.85-.5l2.42 2.76a2.46 2.46 0 0 0 2.82.63 37.13 37.13 0 0 0 7.82-4.57 2.49 2.49 0 0 0 .86-2.75l-1.14-3.47c.47-.45.93-.9 1.37-1.37l3.47 1.14a2.49 2.49 0 0 0 2.75-.86 37.13 37.13 0 0 0 4.57-7.82 2.46 2.46 0 0 0-.63-2.82l-2.76-2.48c.19-.61.35-1.23.5-1.84l3.86-.77a2.49 2.49 0 0 0 2-2.44v-8.47a2.48 2.48 0 0 0-1.99-2.43zm-3 8.87l-3.47.69a2.48 2.48 0 0 0-2 2 28.22 28.22 0 0 1-1.16 4.33 2.48 2.48 0 0 0 .68 2.69l2.6 2.33a31.78 31.78 0 0 1-2.15 3.73l-3.28-1.08a2.48 2.48 0 0 0-2.67.76A28.93 28.93 0 0 1 129.9 71a2.46 2.46 0 0 0-.75 2.66l1.07 3.34a33.1 33.1 0 0 1-3.73 2.19l-2.34-2.61a2.5 2.5 0 0 0-2.69-.68 26.88 26.88 0 0 1-4.33 1.1 2.48 2.48 0 0 0-2 2l-.69 3.47h-4.4l-.68-3.47a2.48 2.48 0 0 0-2-2 26.88 26.88 0 0 1-4.36-1.15 2.49 2.49 0 0 0-2.69.68L98 79.14a31.73 31.73 0 0 1-3.73-2.2l1.07-3.28A2.48 2.48 0 0 0 94.6 71a27.29 27.29 0 0 1-3.18-3.18 2.49 2.49 0 0 0-2.67-.75l-3.28 1.08a31.78 31.78 0 0 1-2.19-3.74l2.6-2.33a2.48 2.48 0 0 0 .68-2.69 28.22 28.22 0 0 1-1.16-4.33 2.48 2.48 0 0 0-2-2l-3.4-.7V48l3.47-.69a2.48 2.48 0 0 0 2-2A27.8 27.8 0 0 1 86.56 41a2.47 2.47 0 0 0-.68-2.69l-2.6-2.34a32.62 32.62 0 0 1 2.19-3.74l3.28 1.08a2.47 2.47 0 0 0 2.67-.75 27.29 27.29 0 0 1 3.18-3.18 2.48 2.48 0 0 0 .75-2.67l-1.07-3.28A31.73 31.73 0 0 1 98 21.19l2.34 2.61a2.49 2.49 0 0 0 2.69.68 26.88 26.88 0 0 1 4.33-1.17 2.47 2.47 0 0 0 2-2l.69-3.47h4.4l.69 3.47a2.47 2.47 0 0 0 2 2 26.88 26.88 0 0 1 4.33 1.17 2.5 2.5 0 0 0 2.69-.68l2.34-2.61a31.73 31.73 0 0 1 3.73 2.2l-1.07 3.28a2.47 2.47 0 0 0 .75 2.67 28.09 28.09 0 0 1 3.18 3.18 2.5 2.5 0 0 0 2.67.75l3.24-1.08a32.62 32.62 0 0 1 2.19 3.74l-2.6 2.34a2.47 2.47 0 0 0-.68 2.69 27.8 27.8 0 0 1 1.16 4.32 2.48 2.48 0 0 0 2 2l3.47.69z" style="" fill="currentColor"/><path class="cls-1" d="M49.67 103.31l-22.35-29.8a2.56 2.56 0 0 0-3.62-.35 1.93 1.93 0 0 0-.35.35L1 103.31a2.47 2.47 0 0 0-.24 2.6l9.67 19.34V147a2.49 2.49 0 0 0 2.49 2.48h24.83a2.48 2.48 0 0 0 2.48-2.48v-21.75l9.67-19.34a2.47 2.47 0 0 0-.23-2.6zm-14.4 41.22H15.4v-17.38h19.87zm.95-22.35H14.45l-8.56-17.12 17-22.61V98a5 5 0 1 0 6.79 1.82A5 5 0 0 0 27.82 98V82.45l17 22.61z" style="" fill="currentColor"/><path class="cls-1" d="M97.05 111.07L79.67 78.79a2.57 2.57 0 0 0-4.37 0l-17.39 32.28a2.54 2.54 0 0 0-.29 1.18V147a2.48 2.48 0 0 0 2.48 2.48h34.77a2.48 2.48 0 0 0 2.48-2.48v-34.75a2.44 2.44 0 0 0-.3-1.18zM77.48 85.2L80 89.9h-5zm-5.2 9.67h10.41l8 14.9H64.26zm-4.73 49.66h-5v-29.8h5zm14.9 0h-9.93v-29.8h9.93zm9.93 0h-5v-29.8h5z" style="" fill="currentColor"/><path class="cls-1" d="M147 94.87h-34.75a2.48 2.48 0 0 0-2.48 2.48V147a2.48 2.48 0 0 0 2.48 2.48H147a2.48 2.48 0 0 0 2.5-2.48V97.35a2.48 2.48 0 0 0-2.5-2.48zm-2.49 10.06h-7.45v5h7.45v4.83h-12.39v5h12.41v5h-7.45v5h7.45v5h-12.41v5h12.41v5h-29.8V99.83h29.8z" style="" fill="currentColor"/></g></symbol><symbol id="icon-quote" viewBox="0 0 50 38"><g class="nc-icon-wrapper" fill="currentColor"><defs/><title>_Harmony Assets</title><path class="cls-1" d="M0 24.72C0 13.86 8.11 2.51 20.83 0l2.05 4.49c-4.61 1.76-8.67 7.9-9.12 12.13a11 11 0 0 1 9.15 10.87c0 6.68-5.38 10.51-10.83 10.51C5.8 38 0 33.1 0 24.72m27.08 0c0-10.86 8.11-22.21 20.83-24.72L50 4.45c-4.61 1.76-8.67 7.9-9.12 12.13A11 11 0 0 1 50 27.45C50 34.17 44.61 38 39.17 38c-6.28 0-12.09-4.86-12.09-13.24" style="" fill="currentColor"/></g></symbol><symbol id="icon-email" viewBox="0 0 25 25"><g class="nc-icon-wrapper" fill="currentColor"><defs/><title>_Harmony Assets</title><path class="cls-1" d="M19.79 17.69H5.21V8.83l7.29 5.91 7.29-5.91zm0-10.42l-7.28 5.9-7.29-5.9zM12.5 0A12.5 12.5 0 1 0 25 12.5 12.5 12.5 0 0 0 12.5 0" style="" fill="currentColor"/></g></symbol><symbol id="icon-phone" viewBox="0 0 25 25"><g class="nc-icon-wrapper" fill="currentColor"><defs/><title>_Harmony Assets</title><path class="cls-1" d="M16.09 18.57c-3.84 1.75-9.79-9.82-6-11.78l1.09-.54L13 9.8l-1.08.54c-1.14.61 1.23 5.25 2.4 4.68l1.07-.53 1.8 3.51zM12.5 0A12.5 12.5 0 1 0 25 12.5 12.5 12.5 0 0 0 12.5 0" style="" fill="currentColor"/></g></symbol><symbol id="icon-listen" viewBox="0 0 150 150"><g class="nc-icon-wrapper" fill="currentColor"><defs/><title>_Harmony Assets</title><path class="cls-1" d="M19 82.76c7.6 0 13.79 8 13.79 17.82S26.63 118.39 19 118.39s-13.8-8-13.8-17.81S11.42 82.76 19 82.76M19 78C8.81 78 .5 88.14.5 100.58s8.31 22.54 18.5 22.54S37.55 113 37.55 100.58 29.24 78 19 78z" style="" fill="currentColor"/><path class="cls-1" d="M77.43 51.27h.37l.27-.25 14.87-13.53 1.78-1.62-2.41-.03-11.03-.1 11.93-7.67 1.75-1.12-2-.58-26.79-7.77-.8-.23-.33.77-3.35 7.76-1.26 2.94 2.66-1.77 4.87-3.25 15.01 3.78-15.83 10.07-2.74 1.74H82.84l-8.9 9.25-1.55 1.61h5.04z" style="" fill="currentColor"/><path class="cls-1" d="M62 75.28a15.88 15.88 0 0 0-14.8 21.66A60 60 0 0 1 62 95.23a60.14 60.14 0 0 1 14.84 1.71A15.9 15.9 0 0 0 62 75.28zm11.22 16.07a74.08 74.08 0 0 0-22.38 0v-.15a11.11 11.11 0 0 1 .87-4.32 4.91 4.91 0 1 0 6.55-6.2A11 11 0 0 1 62 80a11.2 11.2 0 0 1 11.22 11.2z" style="" fill="currentColor"/><path class="cls-1" d="M103.6 71a15.89 15.89 0 0 0-14.83 21.64 60 60 0 0 1 14.83-1.72 60.1 60.1 0 0 1 14.84 1.72A15.91 15.91 0 0 0 103.6 71zm11.19 16.08a73.23 73.23 0 0 0-22.38 0v-.16a11.1 11.1 0 0 1 .87-4.31 4.92 4.92 0 1 0 6.55-6.21 11.18 11.18 0 0 1 15 10.52z" style="" fill="currentColor"/><path class="cls-1" d="M45.88 79.42a2.32 2.32 0 0 1-1.11-.28 2.37 2.37 0 0 1-1-3.2c8.11-15.26 19.49-10.34 19.61-10.29A2.37 2.37 0 0 1 61.45 70c-.34-.15-7.55-3-13.48 8.19a2.38 2.38 0 0 1-2.09 1.23z" style="" fill="currentColor"/><path class="cls-1" d="M116.49 72.64a2.36 2.36 0 0 1-2.12-1.31c-.4-.78-4.08-7.35-13.17-2.77a2.36 2.36 0 1 1-2.13-4.22c4.39-2.21 8.46-2.71 12.12-1.49a13.67 13.67 0 0 1 7.42 6.39 2.36 2.36 0 0 1-1.08 3.16 2.29 2.29 0 0 1-1.04.24z" style="" fill="currentColor"/><path class="cls-1" d="M82.87 108.46a15.43 15.43 0 0 1-3.57-.46 2.36 2.36 0 0 1 1.16-4.58c1 .25 3.54.54 4.74-.18a1.27 1.27 0 0 0 .59-.85.94.94 0 0 0 0-.35c-.31-.33-2.22-.64-4-.45a2.4 2.4 0 0 1-2.27-1.1 2.36 2.36 0 0 1 0-2.52l2-3.13a2.37 2.37 0 0 1 4.17 2.22A6.7 6.7 0 0 1 89.4 99a4.93 4.93 0 0 1 1 4.53 5.93 5.93 0 0 1-2.75 3.79 9.29 9.29 0 0 1-4.78 1.14z" style="" fill="currentColor"/><path class="cls-1" d="M95.84 109.67a2.38 2.38 0 0 0-3.19-1c-.1 0-10.11 5.08-21.48 2.25a2.36 2.36 0 0 0-1.17 4.56l.73.16.27.36c2.93 5.84 3.86 6.86 10 6.86h.72c5.5-.07 8.49-2.87 8.92-8.33a31.28 31.28 0 0 0 4.26-1.69 2.37 2.37 0 0 0 .94-3.17zm-14.26 8.47c-2 0-3.54 0-4.07-.35a4.3 4.3 0 0 1-1-1.35h1.9a38.72 38.72 0 0 0 7.23-.7c-.44 1.63-1.53 2.37-4.06 2.4z" style="" fill="currentColor"/><path class="cls-1" d="M147.08 73.05c-2.13-4.49-5.36-7.13-9.1-7.43a10.25 10.25 0 0 0-7.85 3.18 38.56 38.56 0 0 0-22-20.81 64 64 0 0 0-16.7-4l-4.94 4.5a57.32 57.32 0 0 1 20 4c12.36 4.58 18.1 14.36 20.74 21.76a2.37 2.37 0 0 0 4.23.47c1.84-2.91 4.09-4.48 6.16-4.32s3.84 1.88 5.19 4.73a24.85 24.85 0 0 1 1.88 12.29c-.61 7.74-4.72 16.07-9.64 15.71-2.24-.18-3.82-2.3-4.56-3.55a2.41 2.41 0 0 0-2.13-1.16 2.38 2.38 0 0 0-2 1.33c-8 16.43-26.39 22.66-26.57 22.72-9.4 3.11-10.81 3.47-22.28 4.24-8.71.58-13.69.61-31.63-4.89a18.94 18.94 0 0 1-8.05-5c-.48.76-1 1.51-1.53 2.22-.43.55-.88 1.08-1.35 1.58a23.27 23.27 0 0 0 9.54 5.74c14 4.3 20.69 5.35 27 5.35 2.08 0 4.12-.11 6.38-.26 12.1-.81 14-1.35 23.45-4.47 6.49-2.15 19.92-9.35 27.56-21.91a9.45 9.45 0 0 0 5.87 2.79c7.32.57 13.79-8.23 14.72-20a29.62 29.62 0 0 0-2.39-14.81z" style="" fill="currentColor"/><path class="cls-1" d="M65.06 50.92c1-.22 2-.42 3-.6L71.21 47l2.33-2.42c-3 .41-6.1 1-9.53 1.68-8.18 2-29.6 11-37.77 28.33a22 22 0 0 1 4.23 2.17c6.9-14.64 25.25-23.56 34.59-25.84z" style="" fill="currentColor"/><path class="cls-1" d="M29.18 100.58C27 90.09 21.33 86.35 16.73 86.35c-5.37 0-8.13 6.61-8.43 7.36a2.37 2.37 0 0 0 4.41 1.74c.6-1.53 2.39-4.37 4-4.37s3.57 1 5.23 3.6c-1.31 1.33-2.81 3.9-2 8.44.67 2.32 2.85 3.37 4.59 4.09a6.73 6.73 0 0 1-1 2.17 4.72 4.72 0 0 1-3 2 8.78 8.78 0 0 1-4.2-.68 2.37 2.37 0 0 0-2 4.28 13.88 13.88 0 0 0 5.45 1.18 12.73 12.73 0 0 0 1.37-.08 9.43 9.43 0 0 0 6.27-3.94c1.45-2.05 2.95-5.72 1.76-11.56z" style="" fill="currentColor"/></g></symbol><symbol id="icon-faq" viewBox="0 0 150 150"><g class="nc-icon-wrapper" fill="currentColor"><defs/><title>_Harmony Assets</title><path class="cls-1" d="M101.19 93.33a2.91 2.91 0 0 0-2.91 2.91v20.08a14.57 14.57 0 0 1-14.55 14.56H52.31a2.9 2.9 0 0 0-2.91 2.9v5.79l-6.95-6.95a2.91 2.91 0 0 0-2.67-1.74H20.87a14.57 14.57 0 0 1-14.55-14.56V71.51A14.56 14.56 0 0 1 20.87 57h29.39a2.91 2.91 0 1 0 0-5.82H20.87A20.4 20.4 0 0 0 .5 71.51v44.81a20.4 20.4 0 0 0 20.37 20.38h17.42l12 12a2.94 2.94 0 0 0 2.06.85 2.85 2.85 0 0 0 1.11-.22 2.91 2.91 0 0 0 1.8-2.69v-9.94h28.47a20.4 20.4 0 0 0 20.37-20.38V96.24a2.91 2.91 0 0 0-2.91-2.91z" style="" fill="currentColor"/><path class="cls-1" d="M107.2.5h-7.36a42.3 42.3 0 0 0 0 84.6h7.36a42.58 42.58 0 0 0 10.74-1.38l10.88 10.87a2.91 2.91 0 0 0 5-2V75.7A42.63 42.63 0 0 0 144.9 62a41.86 41.86 0 0 0 4.6-19.19A42.34 42.34 0 0 0 107.2.5zM129.12 72a2.93 2.93 0 0 0-1.12 2.28v11.23l-7.12-7.12a2.9 2.9 0 0 0-2-.85 3.14 3.14 0 0 0-.86.13 36.28 36.28 0 0 1-10.73 1.61h-7.45a36.48 36.48 0 0 1 0-73h7.36A36.47 36.47 0 0 1 129.12 72z" style="" fill="currentColor"/><path class="cls-1" d="M116.62 32.34a12.32 12.32 0 0 0-24.62.87 2.91 2.91 0 0 0 5.82 0 6.5 6.5 0 1 1 7.93 6.34 5.53 5.53 0 0 0-4.34 5.4v7a2.91 2.91 0 1 0 5.82 0v-6.77a12.24 12.24 0 0 0 9.39-12.84z" style="" fill="currentColor"/><path class="cls-1" d="M106.39 61.4a2.92 2.92 0 0 0-5 2.06 3 3 0 0 0 .86 2.06 2.91 2.91 0 0 0 4.11 0 3 3 0 0 0 .85-2.06 2.93 2.93 0 0 0-.82-2.06z" style="" fill="currentColor"/><path class="cls-1" d="M80.53 90.71H19.12a2.92 2.92 0 0 0 0 5.83h61.41a2.92 2.92 0 0 0 0-5.83z" style="" fill="currentColor"/><path class="cls-1" d="M82.59 107.86a2.92 2.92 0 1 0 .85 2.06 2.95 2.95 0 0 0-.85-2.06z" style="" fill="currentColor"/><path class="cls-1" d="M69.08 107h-50a2.91 2.91 0 0 0 0 5.82h50a2.91 2.91 0 0 0 0-5.82z" style="" fill="currentColor"/><path class="cls-1" d="M61.61 74.42H19.12a2.91 2.91 0 0 0 0 5.82h42.49a2.91 2.91 0 0 0 0-5.82z" style="" fill="currentColor"/></g></symbol><symbol id="icon-research" viewBox="0 0 150 150"><g class="nc-icon-wrapper" fill="currentColor"><defs/><title>_Harmony Assets</title><path class="cls-1" d="M148.65 27.83L122.16 1.35a2.91 2.91 0 0 0-2-.85H33.68A8.74 8.74 0 0 0 25 9.23v5.55A38.5 38.5 0 0 0 .5 50.58a2.91 2.91 0 0 0 2.91 2.91h35.53a2.91 2.91 0 0 0 2.91-2.91V15.05a2.91 2.91 0 0 0-2.91-2.91 38.59 38.59 0 0 0-8.17.88V9.23a2.91 2.91 0 0 1 2.91-2.91h83.52v17.75a8.73 8.73 0 0 0 8.73 8.73h17.75v108a2.92 2.92 0 0 1-2.91 2.91H33.68a2.91 2.91 0 0 1-2.91-2.91v-24.96a2.91 2.91 0 0 0-5.82 0v24.93a8.74 8.74 0 0 0 8.73 8.73h107.09a8.74 8.74 0 0 0 8.73-8.73V29.89a3 3 0 0 0-.85-2.06zM36 18.09v29.58H6.45A32.67 32.67 0 0 1 36 18.09zM125.93 27a2.91 2.91 0 0 1-2.93-2.93V10.44L139.57 27z" style="" fill="currentColor"/><path class="cls-1" d="M29.91 103.21a2.89 2.89 0 1 0 .86 2.06 2.92 2.92 0 0 0-.86-2.06z" style="" fill="currentColor"/><path class="cls-1" d="M49.36 22.56a2.92 2.92 0 0 0-2.91 2.91v32.62H13.83A2.92 2.92 0 0 0 10.92 61a38.44 38.44 0 1 0 38.44-38.44zm2.91 6a32.56 32.56 0 0 1 18 7.47l-18 18zm-2.91 65.06a32.67 32.67 0 0 1-32.49-29.71h32.49a2.89 2.89 0 0 0 2.06-.85l23-23a32.61 32.61 0 0 1-25 53.52z" style="" fill="currentColor"/><path class="cls-1" d="M128 92.35a8.73 8.73 0 0 0-8.73 8.73 8.61 8.61 0 0 0 .69 3.4l-16.77 16.77a8.69 8.69 0 0 0-7.54 0l-11.14-11.18a8.73 8.73 0 1 0-16.06.48l-10.68 10.68a8.74 8.74 0 1 0 4.12 4.11l10.62-10.62a8.67 8.67 0 0 0 8.18-.24l10.82 10.82a8.66 8.66 0 0 0-.87 3.8 8.73 8.73 0 1 0 16.63-3.71l16.61-16.61A8.73 8.73 0 1 0 128 92.35zM54 132a2.91 2.91 0 1 1 2-5 2.91 2.91 0 0 1-2 5zm22.36-22.21a2.91 2.91 0 1 1 2.91-2.91 2.91 2.91 0 0 1-2.89 2.93zm23 22.2a2.91 2.91 0 1 1 2.91-2.91 2.91 2.91 0 0 1-2.9 2.92zM128 104a2.91 2.91 0 1 1 2.91-2.91A2.91 2.91 0 0 1 128 104z" style="" fill="currentColor"/><path class="cls-1" d="M113.44 68.89H98.08a2.91 2.91 0 0 0 0 5.82h15.36a2.91 2.91 0 0 0 0-5.82z" style="" fill="currentColor"/><path class="cls-1" d="M128.75 69.74a2.92 2.92 0 1 0 .85 2.06 2.93 2.93 0 0 0-.85-2.06z" style="" fill="currentColor"/><path class="cls-1" d="M133.63 41H98.08a2.91 2.91 0 1 0 0 5.82h35.55a2.91 2.91 0 0 0 0-5.82z" style="" fill="currentColor"/><path class="cls-1" d="M133.63 54.92H98.08a2.91 2.91 0 1 0 0 5.82h35.55a2.91 2.91 0 0 0 0-5.82z" style="" fill="currentColor"/></g></symbol><symbol id="icon-love" viewBox="0 0 150 150"><g class="nc-icon-wrapper" fill="currentColor"><defs/><title>_Harmony Assets</title><path class="cls-1" d="M127.2 99.73l-51.32 8.93L61.3 94.08a2.56 2.56 0 0 0-1.83-.76H33.59A2.58 2.58 0 0 0 31 90.73H2.54v5.18h15.53v36.23H2.54v5.17H31a2.57 2.57 0 0 0 2.58-2.58h7.16l27.66 13.83a8.42 8.42 0 0 0 8-.26l56.45-32.93a8.46 8.46 0 0 0-5.71-15.64zm-98.78 32.41h-5.18V95.91h5.18zM130.3 110.9l-56.45 32.93a3.26 3.26 0 0 1-3.12.1l-28.21-14.11a2.6 2.6 0 0 0-1.16-.27h-7.77V98.5H58.4l20.39 20.38a4.73 4.73 0 0 1-6.69 6.7l-13.39-13.39-3.65 3.66 13.38 13.39a9.91 9.91 0 0 0 14-14l-2.1-2.1 47.73-8.3a3.22 3.22 0 0 1 2.68.72 3.26 3.26 0 0 1 1.17 2.51 3.3 3.3 0 0 1-1.62 2.83z" style="" fill="currentColor"/><path class="cls-1" d="M147.46 18.27V13.1h-16.25c-.48-.49-1.13 0-1.87 0H119c-1.43 0-2.58 0-2.58 2.58h-7.16L81.58 1.45a8.43 8.43 0 0 0-8 .06L17.09 34.34A8.41 8.41 0 0 0 21.34 50a9 9 0 0 0 1.46-.13L74.12 41l14.57 15c.49.49 1.15 1.16 1.84 1.16h25.88s1.15 2.59 2.58 2.59h28.47V54.5h-15.53V18.27zM91.6 51.91L71.21 31.13a5.23 5.23 0 0 1-1.39-3.55 4.83 4.83 0 0 1 4.73-4.83 4.66 4.66 0 0 1 3.35 1.33l13.39 13.36 3.65-3.67-13.38-13.39a9.91 9.91 0 0 0-14 14l2.09 2.09-47.73 8.3a3.28 3.28 0 0 1-2.21-6.07L76.15 5.78a3.26 3.26 0 0 1 3.12-.1l28.21 14.51c.36.18.76.67 1.16.67h7.77v31.05zm30-33.64h5.18V54.5h-5.18z" style="" fill="currentColor"/><path class="cls-1" d="M75 62.39a11.19 11.19 0 0 0-14.9.3 10.18 10.18 0 0 0 0 14.84L73.21 90a2.64 2.64 0 0 0 1.79.71 2.6 2.6 0 0 0 1.78-.71L89.9 77.54a10.19 10.19 0 0 0 0-14.85 11.18 11.18 0 0 0-14.9-.3zm11.33 11.39L75 84.57 63.67 73.78a5 5 0 0 1 0-7.34 5.93 5.93 0 0 1 8.08 0l1.46 1.38a2.59 2.59 0 0 0 3.57 0l1.46-1.38a5.94 5.94 0 0 1 8.08 0 5 5 0 0 1 0 7.35z" style="" fill="currentColor"/><path class="cls-1" d="M45 54.93L40.68 52a41.44 41.44 0 0 0-2.78 4.8l4.64 2.3A34.28 34.28 0 0 1 45 54.93z" style="" fill="currentColor"/><path class="cls-1" d="M34.46 83.68A40.85 40.85 0 0 0 36 89l4.87-1.72a36.29 36.29 0 0 1-1.29-4.65z" style="" fill="currentColor"/><path class="cls-1" d="M34.36 67.23l5.08 1a36.73 36.73 0 0 1 1.24-4.66l-4.9-1.67a42.4 42.4 0 0 0-1.42 5.33z" style="" fill="currentColor"/><path class="cls-1" d="M33.59 75.21c0 1 0 2 .11 3l5.16-.37q-.09-1.31-.09-2.64 0-1.1.06-2.19l-5.16-.32c-.05.84-.08 1.67-.08 2.52z" style="" fill="currentColor"/><path class="cls-1" d="M109.17 63.13a36.52 36.52 0 0 1 1.3 4.65l5.07-1a43.35 43.35 0 0 0-1.49-5.32z" style="" fill="currentColor"/><path class="cls-1" d="M105 95.47l4.29 2.9a39.81 39.81 0 0 0 2.78-4.77l-4.64-2.3a33.54 33.54 0 0 1-2.43 4.17z" style="" fill="currentColor"/><path class="cls-1" d="M109.32 86.85l4.9 1.66a40.63 40.63 0 0 0 1.42-5.33l-5.08-1a36.88 36.88 0 0 1-1.24 4.67z" style="" fill="currentColor"/><path class="cls-1" d="M116.41 75.21c0-1 0-2-.11-3l-5.16.38q.09 1.31.09 2.64c0 .74 0 1.46-.06 2.19l5.16.32c.05-.86.08-1.74.08-2.53z" style="" fill="currentColor"/></g></symbol><symbol id="icon-share" viewBox="0 0 30 30"><g class="nc-icon-wrapper" fill="currentColor"><defs/><title>_Harmony Assets</title><path class="cls-1" d="M30 5a5 5 0 1 0-9.85 1.17l-6.86 3.66A9 9 0 0 1 14.47 12l6.86-3.66A4.94 4.94 0 0 0 25 10a5 5 0 0 0 5-5m-9.85 18.83A5.07 5.07 0 0 0 20 25a5 5 0 1 0 5-5 4.94 4.94 0 0 0-3.67 1.63L14.47 18a9 9 0 0 1-1.18 2.2zM6.25 8.75A6.25 6.25 0 1 1 0 15a6.25 6.25 0 0 1 6.25-6.25" style="" fill="currentColor"/></g></symbol><symbol id="icon-play" viewBox="0 0 125 125"><g class="nc-icon-wrapper"><defs/><title>_Harmony Assets</title><path class="cls-1" d="M62.5 100.5a38 38 0 1 0-38-38 38 38 0 0 0 38 38" style="" fill=" #fff"/><path class="cls-2" d="M80.67 63.23l-30.53 23V40.28zM125 62.5A62.5 62.5 0 1 0 62.5 125 62.5 62.5 0 0 0 125 62.5" style="" fill=" #c14520"/></g></symbol><symbol id="icon-twitter" viewBox="0 0 32 32"><title>twitter</title><g class="nc-icon-wrapper"><path fill="currentColor" d="M32,6.1c-1.2,0.5-2.4,0.9-3.8,1c1.4-0.8,2.4-2.1,2.9-3.6c-1.3,0.8-2.7,1.3-4.2,1.6C25.7,3.8,24,3,22.2,3 c-3.6,0-6.6,2.9-6.6,6.6c0,0.5,0.1,1,0.2,1.5C10.3,10.8,5.5,8.2,2.2,4.2c-0.6,1-0.9,2.1-0.9,3.3c0,2.3,1.2,4.3,2.9,5.5 c-1.1,0-2.1-0.3-3-0.8c0,0,0,0.1,0,0.1c0,3.2,2.3,5.8,5.3,6.4c-0.6,0.1-1.1,0.2-1.7,0.2c-0.4,0-0.8,0-1.2-0.1 c0.8,2.6,3.3,4.5,6.1,4.6c-2.2,1.8-5.1,2.8-8.2,2.8c-0.5,0-1.1,0-1.6-0.1C2.9,27.9,6.4,29,10.1,29c12.1,0,18.7-10,18.7-18.7 c0-0.3,0-0.6,0-0.8C30,8.5,31.1,7.4,32,6.1z"/></g></symbol><symbol id="icon-facebook" viewBox="0 0 48 48"><title>facebook</title><g class="nc-icon-wrapper"><path fill="currentColor" d="M19.32924,46V25.92955h-6.75413v-7.82187h6.75413v-5.76839C19.32924,5.64511,23.41782,2,29.38949,2 c2.86049,0,5.31894,0.21297,6.03539,0.30816v6.99581l-4.14167,0.00188c-3.24773,0-3.87657,1.54327-3.87657,3.80792v4.99391h7.74553 l-1.0085,7.82187h-6.73704V46H19.32924z"/></g></symbol><symbol id="icon-instagram" viewBox="0 0 32 32"><title>instagram</title><g class="nc-icon-wrapper"><path fill="currentColor" d="M16,2.883c4.272,0,4.778,0.016,6.465,0.093c1.821,0.083,3.511,0.448,4.811,1.748 c1.3,1.3,1.665,2.99,1.748,4.811c0.077,1.687,0.093,2.193,0.093,6.465s-0.016,4.778-0.093,6.465 c-0.083,1.821-0.448,3.511-1.748,4.811c-1.3,1.3-2.99,1.665-4.811,1.748c-1.687,0.077-2.193,0.093-6.465,0.093 s-4.778-0.016-6.465-0.093c-1.821-0.083-3.511-0.448-4.811-1.748c-1.3-1.3-1.665-2.99-1.748-4.811 C2.899,20.778,2.883,20.272,2.883,16s0.016-4.778,0.093-6.465c0.083-1.821,0.448-3.511,1.748-4.811c1.3-1.3,2.99-1.665,4.811-1.748 C11.222,2.899,11.728,2.883,16,2.883 M16,0c-4.345,0-4.89,0.018-6.597,0.096c-2.6,0.119-4.884,0.756-6.718,2.589 c-1.833,1.833-2.47,4.117-2.589,6.718C0.018,11.11,0,11.655,0,16c0,4.345,0.018,4.89,0.096,6.597c0.119,2.6,0.756,4.884,2.589,6.718 c1.833,1.833,4.117,2.47,6.718,2.589C11.11,31.982,11.655,32,16,32s4.89-0.018,6.597-0.096c2.6-0.119,4.884-0.756,6.718-2.589 c1.833-1.833,2.47-4.117,2.589-6.718C31.982,20.89,32,20.345,32,16s-0.018-4.89-0.096-6.597c-0.119-2.6-0.756-4.884-2.589-6.718 c-1.833-1.833-4.117-2.47-6.718-2.589C20.89,0.018,20.345,0,16,0L16,0z"/> <path data-color="color-2" d="M16,7.784c-4.538,0-8.216,3.679-8.216,8.216c0,4.538,3.679,8.216,8.216,8.216 s8.216-3.679,8.216-8.216C24.216,11.462,20.538,7.784,16,7.784z M16,21.333c-2.946,0-5.333-2.388-5.333-5.333 c0-2.946,2.388-5.333,5.333-5.333c2.946,0,5.333,2.388,5.333,5.333C21.333,18.946,18.946,21.333,16,21.333z"/> <circle data-color="color-2" cx="24.541" cy="7.459" r="1.92"/></g></symbol><symbol id="icon-youtube" viewBox="0 0 32 32"><title>youtube</title><g class="nc-icon-wrapper"><path fill="currentColor" d="M31.7,9.6c0,0-0.3-2.2-1.3-3.2c-1.2-1.3-2.6-1.3-3.2-1.4C22.7,4.7,16,4.7,16,4.7h0c0,0-6.7,0-11.2,0.3 c-0.6,0.1-2,0.1-3.2,1.4c-1,1-1.3,3.2-1.3,3.2S0,12.2,0,14.8v2.4c0,2.6,0.3,5.2,0.3,5.2s0.3,2.2,1.3,3.2c1.2,1.3,2.8,1.2,3.5,1.4 C7.7,27.2,16,27.3,16,27.3s6.7,0,11.2-0.3c0.6-0.1,2-0.1,3.2-1.4c1-1,1.3-3.2,1.3-3.2s0.3-2.6,0.3-5.2v-2.4 C32,12.2,31.7,9.6,31.7,9.6z M12.7,20.2l0-9l8.6,4.5L12.7,20.2z"/></g></symbol></svg>